<?xml version="1.0" encoding="utf-8"?>
<!-- Generator: Adobe Illustrator 24.1.2, SVG Export Plug-In . SVG Version: 6.00 Build 0)  -->
<svg version="1.1" id="Calque_1" xmlns="http://www.w3.org/2000/svg" xmlns:xlink="http://www.w3.org/1999/xlink" x="0px" y="0px"
	 viewBox="0 0 81.2 34.4" style="enable-background:new 0 0 81.2 34.4;" xml:space="preserve">
<style type="text/css">
	.st0{fill-rule:evenodd;clip-rule:evenodd;fill:none;stroke:#000000;stroke-width:0.25;stroke-miterlimit:10;}
	.st1{fill:none;stroke:#000000;stroke-width:0.25;stroke-miterlimit:10;}
</style>
<g>
	<path class="st0" d="M35.1,30.1v2.7h-6.9c0.1-1,0.3-2,0.7-3c0.4-0.9,1.1-2.2,2.2-3.7c0.9-1.2,1.4-2.1,1.6-2.5
		c0.3-0.6,0.4-1.2,0.4-1.8c0-0.7-0.1-1.2-0.4-1.5c-0.2-0.4-0.6-0.5-1-0.5c-0.4,0-0.7,0.2-1,0.6c-0.2,0.4-0.4,1-0.4,1.9l-2-0.3
		c0.1-1.6,0.5-2.8,1.1-3.5c0.6-0.7,1.4-1.1,2.3-1.1c1,0,1.8,0.4,2.4,1.2c0.6,0.8,0.9,1.8,0.9,3.1c0,0.7-0.1,1.4-0.2,2
		c-0.2,0.6-0.4,1.3-0.8,2c-0.2,0.5-0.7,1.1-1.3,2c-0.6,0.9-1,1.4-1.2,1.7c-0.2,0.3-0.3,0.6-0.4,0.8H35.1z"/>
	<path class="st0" d="M36.4,28.8l2-0.3c0.1,0.7,0.2,1.2,0.5,1.6c0.3,0.4,0.6,0.6,1,0.6c0.4,0,0.8-0.3,1-0.8c0.3-0.5,0.4-1.3,0.4-2.3
		c0-1-0.1-1.7-0.4-2.1c-0.3-0.5-0.7-0.7-1.1-0.7c-0.6,0-1.1,0.4-1.5,1.1l-1.6-0.3l1-8h5.2v2.8h-3.7L38.9,23c0.4-0.3,0.9-0.5,1.4-0.5
		c0.9,0,1.6,0.5,2.2,1.4c0.6,1,0.9,2.2,0.9,3.7c0,1.3-0.2,2.4-0.7,3.4c-0.7,1.4-1.6,2-2.8,2c-1,0-1.7-0.4-2.3-1.1
		C36.9,31.2,36.6,30.1,36.4,28.8"/>
	<path class="st0" d="M54,21.6h1.8v1.5c0.6-1.2,1.4-1.8,2.3-1.8c0.5,0,0.9,0.1,1.2,0.4c0.4,0.3,0.6,0.7,0.9,1.3
		c0.3-0.6,0.7-1,1.1-1.3c0.4-0.3,0.8-0.4,1.2-0.4c0.5,0,1,0.2,1.4,0.5c0.4,0.3,0.7,0.8,0.9,1.5c0.1,0.5,0.2,1.2,0.2,2.3v7.1h-2v-6.4
		c0-1.1-0.1-1.8-0.2-2.1c-0.2-0.4-0.5-0.6-0.8-0.6c-0.3,0-0.5,0.1-0.8,0.4c-0.2,0.3-0.4,0.6-0.5,1.1c-0.1,0.5-0.2,1.3-0.2,2.3v5.4
		h-2v-6.1c0-1.1,0-1.8-0.1-2.1c-0.1-0.3-0.2-0.6-0.3-0.7c-0.2-0.2-0.4-0.2-0.6-0.2c-0.3,0-0.6,0.1-0.8,0.4c-0.2,0.2-0.4,0.6-0.5,1.1
		c-0.1,0.5-0.2,1.2-0.2,2.3v5.4h-2V21.6z"/>
	<polygon class="st1" points="66.7,32.8 66.7,17.4 69.1,17.4 69.1,32.8 66.7,32.8 	"/>
	<path class="st0" d="M47.8,19.8c-0.2,0-0.4,0.1-0.6,0.3c-0.2,0.2-0.3,0.6-0.4,1.2c-0.1,0.8-0.2,2.1-0.2,3.9c0,1.8,0.1,3.1,0.2,3.7
		c0.1,0.7,0.3,1.1,0.5,1.4c0.2,0.2,0.4,0.3,0.6,0.3c0.2,0,0.4-0.1,0.6-0.3c0.2-0.2,0.3-0.6,0.4-1.2c0.1-0.8,0.2-2,0.2-3.9
		c0-1.8-0.1-3.1-0.2-3.7c-0.1-0.7-0.3-1.1-0.5-1.4C48.2,19.9,48,19.8,47.8,19.8 M47.8,17.3c1,0,1.8,0.5,2.3,1.6c0.7,1.3,1,3.4,1,6.3
		c0,2.9-0.3,5-1,6.3c-0.6,1.1-1.3,1.6-2.3,1.6c-1,0-1.8-0.6-2.4-1.7c-0.6-1.2-0.9-3.2-0.9-6.2c0-2.9,0.3-5,1-6.3
		C46,17.8,46.8,17.3,47.8,17.3"/>
</g>
<path class="st0" d="M64.7,9c0,0,0.2-7.3,7.6-7.3S80.2,9,80.2,9H67.7v3.8c0,0,1.1,2.5,4.5,2.5c3.4,0,5.4-2.3,5.4-2.3h1.1
	c0,0-1.8,3.1-6.5,3.1c-4.6,0-7.4-4.2-7.4-6.6V9z M67.7,8.4V4.1c0,0,1.5-1.8,4.7-1.8c3.2,0,5.1,2.4,5.1,2.4v3.7L67.7,8.4z"/>
<g>
	<path class="st1" d="M54.2,1.8C50.3,1.8,47,5,47,9c0,4,3.2,7.2,7.2,7.2c4,0,7.2-3.2,7.2-7.2C61.4,5,58.2,1.8,54.2,1.8z M47.5,9
		c0-3.7,3-6.7,6.7-6.7c1.5,0,2.9,0.5,4,1.3C59.1,4.4,60,5.7,60,7.3c0.2,5.6-5.3,6.4-5.8,6.2v1.7c-2.7-0.9-3.7-3.5-3.6-3.5
		c1.4-3,3.6-3.6,3.6-3.6v1.7c2.7-0.9,3.7-3.5,3.7-3.5c-1.4-3-3.7-3.5-3.7-3.5v1.6c-0.4-0.2-5.2,0.3-5.7,4.9
		c-0.3,2.1,0.4,3.6,1.3,4.6C48.4,12.8,47.5,11,47.5,9z"/>
	<g>
		<path class="st1" d="M37,9.3c-0.6,0.9-0.1,2.2,0.6,2.8c0.6,0.6,1.1,0.7,1.1,0.7l0.3-0.6l0.9,2.4l-2.5,0.5l0.3-0.6l-0.3-0.2
			c-1.1-0.7-1.3-1.6-1.3-1.9C35.9,12,35.8,10.5,37,9.3"/>
		<path class="st1" d="M37,9.4c0.5,1,1.8,1.2,2.7,1c0.8-0.2,1.2-0.5,1.2-0.6l0,0l-0.3-0.6l2.5,0.6l-0.9,2.4l-0.3-0.6l-0.3,0.2
			c-1.1,0.5-2.1,0.2-2.3,0.1C38.7,11.7,37.3,11.1,37,9.4"/>
		<path class="st1" d="M41.5,6.9c-0.2,1.2-0.9,1.8-1.2,2C39.9,9.2,38.6,10,37,9.4c1.1,0.2,2-0.8,2.3-1.7c0.3-0.8,0.2-1.3,0.2-1.3
			l0,0l-0.7,0l1.8-1.8l1.5,2.1l-0.7,0L41.5,6.9z"/>
		<path class="st0" d="M33.8,5.8c-0.6,0-1-0.5-1-1c0-0.6,0.5-1,1-1c0.6,0,1,0.5,1,1C34.9,5.4,34.4,5.8,33.8,5.8"/>
		<path class="st1" d="M35.2,1.8c-3.8,0-6.8,3.1-6.8,6.8c0,3.8,3.1,6.8,6.8,6.8c0.2,0,0.4,0,0.6,0l0,0.7l1.2-1.2l-1.4-1.1l0.1,0.7
			c-0.2,0-0.4,0-0.5,0c-0.3,0-0.6,0-0.9-0.1l0-0.2l-0.6-5.5c-0.1-1,0.5-1.2,0.9-1.1l2.1,0.8C36.9,8.6,37,8.4,37,8.4s0.1-0.2-0.1-0.4
			c0,0-2.8-1.9-3.4-2c-0.8-0.2-1.6,0.5-1.8,1.4l-1,4.9c-0.9-1-1.4-2.4-1.4-3.8c0-3.3,2.7-5.9,5.9-5.9c1.8,0,3.3,0.8,4.4,2L40.3,4
			C39,2.6,37.2,1.8,35.2,1.8 M32.2,10.9c0.1-0.2,0.2-0.2,0.2-0.2s0.1,0,0.2,0.2l1,3.4c-0.8-0.2-1.6-0.6-2.2-1.2L32.2,10.9z"/>
	</g>
</g>
<g>
	<path class="st1" d="M21.6,26.4h-1c-0.1,0-0.2,0-0.2,0c0.5-5.1,1.2-13,1.5-16.6c0-0.4-0.2-0.7-0.6-0.7c-0.4,0-0.7,0.2-0.7,0.6
		c-0.5,5.5-1.9,21.2-1.9,21.4c0,0.3-0.3,0.5-0.6,0.5H7.3c-0.3,0-0.6-0.2-0.6-0.5c0-0.2-1.4-15.9-1.9-21.4C4.8,9.3,4.5,9,4.1,9
		c-0.4,0-0.6,0.4-0.6,0.7C3.8,13.4,4.5,21.3,5,26.4c-0.1,0-0.2,0-0.2,0h-1c-0.6,0-1.2,0.5-1.2,1.2v4.2c0,0.6,0.5,1.2,1.2,1.2h1
		c0.5,0,0.9-0.3,1.1-0.7c0.4,0.4,0.9,0.7,1.5,0.7h10.7c0.6,0,1.2-0.3,1.5-0.7c0.2,0.4,0.6,0.7,1.1,0.7h1c0.6,0,1.2-0.5,1.2-1.2v-4.2
		C22.8,26.9,22.3,26.4,21.6,26.4"/>
	<path class="st1" d="M10.4,14.1v-0.5c0-0.6-0.2-1.1-0.6-1.3c0.3-0.2,0.5-0.6,0.5-1.2v-0.2c0-1-0.5-1.5-1.6-1.5H7.2v6.4h1.6
		C9.9,15.7,10.4,15.1,10.4,14.1 M9.2,14.1c0,0.4-0.2,0.5-0.4,0.5H8.4V13h0.3c0.3,0,0.5,0.1,0.5,0.6V14.1z M9.1,11.3
		c0,0.4-0.2,0.5-0.4,0.5H8.4v-1.3h0.3c0.2,0,0.4,0,0.4,0.5V11.3z"/>
	<path class="st1" d="M12.2,14.6h0.9l0.2,1.1h1.2l-1-6.4h-1.6l-1,6.4h1.2L12.2,14.6z M13,13.5h-0.6l0.3-2.1L13,13.5z"/>
	<path class="st1" d="M18.2,11.7v-0.7c0-1.1-0.6-1.7-1.6-1.7c-1,0-1.6,0.6-1.6,1.7v3.2c0,1.1,0.6,1.7,1.6,1.7c1,0,1.6-0.6,1.6-1.7
		v-0.9H17v1c0,0.4-0.2,0.5-0.4,0.5c-0.2,0-0.4-0.1-0.4-0.5v-3.3c0-0.4,0.2-0.5,0.4-0.5c0.2,0,0.4,0.1,0.4,0.5v0.8H18.2z"/>
	<path class="st1" d="M10.9,16.8H9.3v6.4h1.7c1,0,1.6-0.6,1.6-1.6v-3.1C12.5,17.4,11.9,16.8,10.9,16.8 M10.5,17.9h0.4
		c0.2,0,0.4,0,0.4,0.5v3.2c0,0.4-0.2,0.5-0.4,0.5h-0.4V17.9z"/>
	<polygon class="st1" points="16.2,17.9 16.2,16.8 13.3,16.8 13.3,23.2 16.2,23.2 16.2,22 14.5,22 14.5,20.5 15.8,20.5 15.8,19.4 
		14.5,19.4 14.5,17.9 	"/>
	<polygon class="st1" points="8,25.4 9,25.4 9,30.7 10.3,30.7 10.3,25.4 11.3,25.4 11.3,24.3 8,24.3 	"/>
	<path class="st1" d="M15,29.8v-0.9c0-0.4-0.1-1-0.5-1.3c0.3-0.2,0.5-0.7,0.5-1.2v-0.5c0-1-0.5-1.5-1.6-1.5h-1.6v6.4h1.2v-2.5h0.2
		c0.3,0,0.5,0.1,0.5,0.6v1c0,0.5,0,0.6,0.1,0.8l0.1,0l-0.1,0l0,0.1h1.3l-0.1-0.2C15,30.3,15,30.1,15,29.8 M13.1,25.4h0.3
		c0.2,0,0.4,0,0.4,0.5v0.6c0,0.4-0.2,0.5-0.4,0.5h-0.2V25.4z"/>
	<rect x="15.8" y="24.3" class="st1" width="1.2" height="6.4"/>
	<path class="st1" d="M22.3,3.7h-1.1l-1.6-1.4c-0.3-0.3-0.8-0.5-1.4-0.5h-11c-0.5,0-1,0.2-1.4,0.5L4.3,3.7H3.1
		c-0.7,0-1.3,0.6-1.3,1.4v1.8c0,0.2,0.1,0.5,0.2,0.7C2,7.6,2.1,7.7,2.2,7.8C2.4,7.9,2.6,8,2.9,8h19.6c0.3,0,0.5-0.1,0.7-0.2
		c0.1-0.1,0.2-0.1,0.2-0.2c0.1-0.2,0.2-0.5,0.2-0.7V5.1C23.6,4.3,23,3.7,22.3,3.7 M22.3,6.7H3.1V5.1c0-0.1,0-0.1,0-0.1h1.4
		c0.2,0,0.3-0.1,0.4-0.2l1.7-1.5c0.1-0.1,0.3-0.1,0.5-0.1h11c0.2,0,0.4,0.1,0.5,0.1l1.7,1.5C20.6,4.9,20.7,5,20.9,5h1.4
		c0,0,0,0,0,0.1V6.7z"/>
	<path class="st1" d="M18.2,3.8h-11C6.9,3.8,6.6,4,6.6,4.3c0,0.3,0.2,0.5,0.6,0.5h11c0.3,0,0.6-0.2,0.6-0.5
		C18.8,4,18.5,3.8,18.2,3.8"/>
</g>
</svg>
