<?xml version="1.0" encoding="utf-8"?>
<!-- Generator: Adobe Illustrator 24.1.2, SVG Export Plug-In . SVG Version: 6.00 Build 0)  -->
<svg version="1.1" id="Calque_1" xmlns="http://www.w3.org/2000/svg" xmlns:xlink="http://www.w3.org/1999/xlink" x="0px" y="0px"
	 viewBox="0 0 117.8 180.7" style="enable-background:new 0 0 117.8 180.7;" xml:space="preserve">
<style type="text/css">
	.st0{fill:none;}
	.st1{font-family:'ArialMT';}
	.st2{font-size:5.5px;}
	.st3{letter-spacing:2.4;}
	.st4{letter-spacing:1.2;}
	.st5{letter-spacing:7.1;}
	.st6{letter-spacing:5.9;}
	.st7{letter-spacing:3.5;}
	.st8{font-family:'OpenSans-Extrabold';}
	.st9{font-size:6px;}
	.st10{fill:#FFFFFF;stroke:#000000;stroke-width:0.5;stroke-miterlimit:10;}
	.st11{fill:none;stroke:#FFFFFF;stroke-width:0.5;stroke-miterlimit:10;}
</style>
<text transform="matrix(1 0 0 1 2.5031 196.9819)" style="display:none;"><tspan x="0" y="0" style="display:inline; font-family:'MyriadPro-Regular'; font-size:12px;">avec édulcorant. A Teneur élevée en caféine (32mg</tspan><tspan x="0" y="14.4" style="display:inline; font-family:'MyriadPro-Regular'; font-size:12px;">pour 100ml), déconseillé aux enfants, aux femmes</tspan><tspan x="0" y="28.8" style="display:inline; font-family:'MyriadPro-Regular'; font-size:12px;">enceintes ou allaitantes. A consommer avec</tspan><tspan x="0" y="43.2" style="display:inline; font-family:'MyriadPro-Regular'; font-size:12px;">modération. Les vitamines B3, B5, B6 et B12</tspan><tspan x="0" y="57.6" style="display:inline; font-family:'MyriadPro-Regular'; font-size:12px;">contribuent à réduire la fatigue. Ingrédients : eau</tspan><tspan x="0" y="72" style="display:inline; font-family:'MyriadPro-Regular'; font-size:12px;">gazéifiée, sucre, acidifiant: acide citrique, correcteur d&apos;</tspan><tspan x="0" y="86.4" style="display:inline; font-family:'MyriadPro-Regular'; font-size:12px;">acidité : citrate de sodium, arôme naturel, taurine,</tspan><tspan x="0" y="100.8" style="display:inline; font-family:'MyriadPro-Regular'; font-size:12px;">caféine 0,03%, édulcorant : glycosides de stéviol,</tspan><tspan x="0" y="115.2" style="display:inline; font-family:'MyriadPro-Regular'; font-size:12px;">colorants : concentré (patate douce, carotte), niacine,</tspan><tspan x="0" y="129.6" style="display:inline; font-family:'MyriadPro-Regular'; font-size:12px;">acide pantothénique, vitamine B6, vitamine B12.</tspan><tspan x="0" y="144" style="display:inline; font-family:'MyriadPro-Regular'; font-size:12px;">Pasteurisé. Un régime alimentaire varié et équilibré ainsi</tspan><tspan x="0" y="158.4" style="display:inline; font-family:'MyriadPro-Regular'; font-size:12px;">qu&apos;un mode de vie sain sont fortement recomman-</tspan><tspan x="0" y="172.8" style="display:inline; font-family:'MyriadPro-Regular'; font-size:12px;">dés. À consommer de préférence avant fin : voir fond.</tspan></text>
<rect x="2.1" y="65.6" class="st0" width="115.5" height="107.5"/>
<text transform="matrix(0.85 0 0 1 2.0727 69.5645)"><tspan x="0" y="0" class="st1 st2">avec</tspan><tspan x="11.6" y="0" class="st1 st2"> </tspan><tspan x="14" y="0" class="st1 st2">édulcorant.</tspan><tspan x="41.2" y="0" class="st1 st2"> </tspan><tspan x="43.3" y="0" class="st1 st2">A</tspan><tspan x="46.8" y="0" class="st1 st2"> </tspan><tspan x="49.2" y="0" class="st1 st2">T</tspan><tspan x="52.2" y="0" class="st1 st2">eneur</tspan><tspan x="66.2" y="0" class="st1 st2"> </tspan><tspan x="68.5" y="0" class="st1 st2">élevée</tspan><tspan x="84.7" y="0" class="st1 st2 st3"> </tspan><tspan x="88.6" y="0" class="st1 st2">en</tspan><tspan x="94.7" y="0" class="st1 st2 st3"> </tspan><tspan x="98.7" y="0" class="st1 st2">caféine</tspan><tspan x="116.4" y="0" class="st1 st2 st3"> </tspan><tspan x="120.3" y="0" class="st1 st2">(32mg</tspan><tspan x="135.9" y="0" class="st1 st2"> </tspan><tspan x="0" y="6" class="st1 st2">pour</tspan><tspan x="11" y="6" class="st1 st2 st4"> </tspan><tspan x="14.7" y="6" class="st1 st2">100ml),</tspan><tspan x="33" y="6" class="st1 st2 st4"> </tspan><tspan x="36.7" y="6" class="st1 st2">déconseillé</tspan><tspan x="64.3" y="6" class="st1 st2 st4"> </tspan><tspan x="68" y="6" class="st1 st2">aux</tspan><tspan x="76.8" y="6" class="st1 st2 st4"> </tspan><tspan x="80.5" y="6" class="st1 st2">enfants,</tspan><tspan x="100.1" y="6" class="st1 st2 st4"> </tspan><tspan x="103.8" y="6" class="st1 st2">aux</tspan><tspan x="112.6" y="6" class="st1 st2 st4"> </tspan><tspan x="116.3" y="6" class="st1 st2">femmes</tspan><tspan x="135.9" y="6" class="st1 st2"> </tspan><tspan x="0" y="12" class="st1 st2">enceintes</tspan><tspan x="23.5" y="12" class="st1 st2 st5"> </tspan><tspan x="32.4" y="12" class="st1 st2">ou</tspan><tspan x="38.5" y="12" class="st1 st2 st5"> </tspan><tspan x="47.3" y="12" class="st1 st2">allaitantes.</tspan><tspan x="73.6" y="12" class="st1 st2 st6"> </tspan><tspan x="81.2" y="12" class="st1 st2">A</tspan><tspan x="84.7" y="12" class="st1 st2 st7"> </tspan><tspan x="89.8" y="12" class="st1 st2">consommer</tspan><tspan x="118.5" y="12" class="st1 st2 st7"> </tspan><tspan x="124.3" y="12" class="st1 st2">avec</tspan><tspan x="135.9" y="12" class="st1 st2"> </tspan><tspan x="0" y="18" class="st1 st2">modération.</tspan><tspan x="29" y="18" class="st1 st2 st7"> </tspan><tspan x="34.3" y="18" class="st1 st2">Les</tspan><tspan x="43.2" y="18" class="st1 st2 st7"> </tspan><tspan x="48.5" y="18" class="st1 st2">vitamines</tspan><tspan x="71.8" y="18" class="st1 st2 st7"> </tspan><tspan x="77.1" y="18" class="st1 st2">B3,</tspan><tspan x="85.3" y="18" class="st1 st2 st7"> </tspan><tspan x="90.6" y="18" class="st1 st2">B5,</tspan><tspan x="98.9" y="18" class="st1 st2 st7"> </tspan><tspan x="104.2" y="18" class="st1 st2">B6</tspan><tspan x="110.9" y="18" class="st1 st2 st7"> </tspan><tspan x="116.2" y="18" class="st1 st2">et</tspan><tspan x="120.8" y="18" class="st1 st2 st7"> </tspan><tspan x="126.1" y="18" class="st1 st2">B12</tspan><tspan x="135.9" y="18" class="st1 st2"> </tspan><tspan x="0" y="24" class="st1 st2">contribuent</tspan><tspan x="27.2" y="24" class="st1 st2 st3"> </tspan><tspan x="31.3" y="24" class="st1 st2">à</tspan><tspan x="34.4" y="24" class="st1 st2 st3"> </tspan><tspan x="38.5" y="24" class="st1 st2">réduire</tspan><tspan x="55.6" y="24" class="st1 st2 st3"> </tspan><tspan x="59.7" y="24" class="st1 st2">la</tspan><tspan x="64" y="24" class="st1 st2 st3"> </tspan><tspan x="68.1" y="24" class="st1 st2">fatigue.</tspan><tspan x="86.1" y="24" class="st1 st2 st3"> </tspan><tspan x="90.2" y="24" class="st1 st2">Ingrédients</tspan><tspan x="117.5" y="24" class="st1 st2 st3"> </tspan><tspan x="121.6" y="24" class="st1 st2">:</tspan><tspan x="123.1" y="24" class="st1 st2 st4"> </tspan><tspan x="126.7" y="24" class="st1 st2">eau</tspan><tspan x="135.9" y="24" class="st1 st2"> </tspan><tspan x="0" y="30" class="st1 st2">gazéifiée,</tspan><tspan x="23.5" y="30" class="st1 st2"> </tspan><tspan x="25.7" y="30" class="st1 st2">sucre,</tspan><tspan x="40.7" y="30" class="st1 st2"> </tspan><tspan x="42.8" y="30" class="st1 st2">acidifiant:</tspan><tspan x="66" y="30" class="st1 st2"> </tspan><tspan x="68.2" y="30" class="st1 st2">acide</tspan><tspan x="81.3" y="30" class="st1 st2"> </tspan><tspan x="83.5" y="30" class="st1 st2">citrique,</tspan><tspan x="102.7" y="30" class="st1 st2"> </tspan><tspan x="104.9" y="30" class="st1 st2">correcteur</tspan><tspan x="129.7" y="30" class="st1 st2"> </tspan><tspan x="131.8" y="30" class="st1 st2">d&apos;</tspan><tspan x="135.9" y="30" class="st1 st2"> </tspan><tspan x="0" y="36" class="st1 st2">acidité</tspan><tspan x="15.9" y="36" class="st1 st2 st4"> </tspan><tspan x="18.9" y="36" class="st1 st2">:</tspan><tspan x="20.4" y="36" class="st1 st2 st4"> </tspan><tspan x="23.9" y="36" class="st1 st2">citrate</tspan><tspan x="38.8" y="36" class="st1 st2 st4"> </tspan><tspan x="42.3" y="36" class="st1 st2">de</tspan><tspan x="48.4" y="36" class="st1 st2 st4"> </tspan><tspan x="51.8" y="36" class="st1 st2">sodium,</tspan><tspan x="71" y="36" class="st1 st2 st4"> </tspan><tspan x="74.5" y="36" class="st1 st2">arôme</tspan><tspan x="90.1" y="36" class="st1 st2 st4"> </tspan><tspan x="93.1" y="36" class="st1 st2">naturel,</tspan><tspan x="111.4" y="36" class="st1 st2 st7"> </tspan><tspan x="117.6" y="36" class="st1 st2">taurine, </tspan><tspan x="0" y="42" class="st1 st2">caféine</tspan><tspan x="17.7" y="42" class="st1 st2 st3"> </tspan><tspan x="22.5" y="42" class="st1 st2">0,03%,</tspan><tspan x="39.6" y="42" class="st1 st2 st3"> </tspan><tspan x="44.3" y="42" class="st1 st2">édulcorant</tspan><tspan x="70" y="42" class="st1 st2"> </tspan><tspan x="72.3" y="42" class="st1 st2">:</tspan><tspan x="73.9" y="42" class="st1 st2"> </tspan><tspan x="76.2" y="42" class="st1 st2">glycosides</tspan><tspan x="101.9" y="42" class="st1 st2 st7"> </tspan><tspan x="107.3" y="42" class="st1 st2">de</tspan><tspan x="113.4" y="42" class="st1 st2 st7"> </tspan><tspan x="118.8" y="42" class="st1 st2">stéviol, </tspan><tspan x="0" y="48" class="st1 st2">colorants</tspan><tspan x="22.3" y="48" class="st1 st2"> </tspan><tspan x="24.2" y="48" class="st1 st2">:</tspan><tspan x="25.7" y="48" class="st1 st2 st4"> </tspan><tspan x="29.5" y="48" class="st1 st2">concentré</tspan><tspan x="53.7" y="48" class="st1 st2"> </tspan><tspan x="55.6" y="48" class="st1 st2">(patate</tspan><tspan x="72.7" y="48" class="st1 st2"> </tspan><tspan x="74.6" y="48" class="st1 st2">douce,</tspan><tspan x="91.1" y="48" class="st1 st2"> </tspan><tspan x="92.9" y="48" class="st1 st2">carotte),</tspan><tspan x="113.1" y="48" class="st1 st2 st4"> </tspan><tspan x="116.9" y="48" class="st1 st2">niacine,</tspan><tspan x="135.9" y="48" class="st1 st2 st4"> </tspan><tspan x="0" y="54" class="st1 st2">acide</tspan><tspan x="13.1" y="54" class="st1 st2 st7"> </tspan><tspan x="18.3" y="54" class="st1 st2">pantothénique,</tspan><tspan x="54.7" y="54" class="st1 st2 st7"> </tspan><tspan x="59.9" y="54" class="st1 st2">vitamine</tspan><tspan x="80.4" y="54" class="st1 st2 st7"> </tspan><tspan x="85.5" y="54" class="st1 st2">B6,</tspan><tspan x="93.8" y="54" class="st1 st2 st7"> </tspan><tspan x="98.9" y="54" class="st1 st2">vitamine</tspan><tspan x="119.4" y="54" class="st1 st2 st7"> </tspan><tspan x="124.6" y="54" class="st1 st2">B12.</tspan><tspan x="135.9" y="54" class="st1 st2 st4"> </tspan><tspan x="0" y="60" class="st1 st2">Pasteurisé.</tspan><tspan x="27.5" y="60" class="st1 st2"> </tspan><tspan x="28.8" y="60" class="st1 st2">Un</tspan><tspan x="35.8" y="60" class="st1 st2"> </tspan><tspan x="37.1" y="60" class="st1 st2">régime</tspan><tspan x="53.9" y="60" class="st1 st2"> </tspan><tspan x="55.2" y="60" class="st1 st2">alimentaire</tspan><tspan x="82.1" y="60" class="st1 st2"> </tspan><tspan x="83.4" y="60" class="st1 st2">varié</tspan><tspan x="95.3" y="60" class="st1 st2"> </tspan><tspan x="96.6" y="60" class="st1 st2">et</tspan><tspan x="101.2" y="60" class="st1 st2"> </tspan><tspan x="102.4" y="60" class="st1 st2">équilibré</tspan><tspan x="123.2" y="60" class="st1 st2"> </tspan><tspan x="124.6" y="60" class="st1 st2">ainsi</tspan><tspan x="135.9" y="60" class="st1 st2 st4"> </tspan><tspan x="0" y="66" class="st1 st2">qu&apos;un</tspan><tspan x="13.3" y="66" class="st1 st2 st4"> </tspan><tspan x="16.7" y="66" class="st1 st2">mode</tspan><tspan x="30.5" y="66" class="st1 st2 st4"> </tspan><tspan x="34" y="66" class="st1 st2">de</tspan><tspan x="40.1" y="66" class="st1 st2 st4"> </tspan><tspan x="43.5" y="66" class="st1 st2">vie</tspan><tspan x="50.6" y="66" class="st1 st2 st4"> </tspan><tspan x="54" y="66" class="st1 st2">sain</tspan><tspan x="64.1" y="66" class="st1 st2 st4"> </tspan><tspan x="67.6" y="66" class="st1 st2">sont</tspan><tspan x="78" y="66" class="st1 st2 st4"> </tspan><tspan x="81.4" y="66" class="st1 st2">fortement</tspan><tspan x="104.6" y="66" class="st1 st2 st4"> </tspan><tspan x="108.1" y="66" class="st1 st2">recomman</tspan><tspan x="134.1" y="66" class="st1 st2">-</tspan><tspan x="0" y="72" class="st1 st2">dés.</tspan><tspan x="10.4" y="72" class="st1 st2"> </tspan><tspan x="12.5" y="72" class="st1 st2">À</tspan><tspan x="16.2" y="72" class="st1 st2"> </tspan><tspan x="18.2" y="72" class="st1 st2">consommer</tspan><tspan x="47" y="72" class="st1 st2"> </tspan><tspan x="49.1" y="72" class="st1 st2">de</tspan><tspan x="55.2" y="72" class="st1 st2"> </tspan><tspan x="57.3" y="72" class="st1 st2">préférence</tspan><tspan x="83.6" y="72" class="st1 st2"> </tspan><tspan x="85.7" y="72" class="st1 st2">avant</tspan><tspan x="99.1" y="72" class="st1 st2"> </tspan><tspan x="101.2" y="72" class="st1 st2">ﬁn</tspan><tspan x="107" y="72" class="st1 st2"> </tspan><tspan x="109.1" y="72" class="st1 st2">:</tspan><tspan x="110.6" y="72" class="st1 st2"> </tspan><tspan x="112.7" y="72" class="st1 st2">voir</tspan><tspan x="121.6" y="72" class="st1 st2"> </tspan><tspan x="123.7" y="72" class="st1 st2">fond. </tspan><tspan x="0" y="78" class="st1 st2">Fabriquée en UE pour :                          EMB 59636 DP</tspan><tspan x="0" y="90" class="st8 st9">XPLICITDRINK ® </tspan><tspan x="39.7" y="90" class="st1 st9">(GRG groupe)</tspan><tspan x="0" y="96" class="st1 st9">750 rte de st sauveur 31620 Cepet.                     </tspan><tspan x="0" y="102" class="st1 st9">RDV sur www.xplicitdrink.com</tspan></text>
<g>
	<g>
		<path class="st10" d="M3.5,55.5h3.1l-0.2,1.5H4.5l-0.1,0.9h1.5l-0.2,1.5H4.1L4,60.3h1.9l-0.2,1.5H2.6L3.5,55.5z"/>
		<path class="st10" d="M7.5,55.5l2.1,3.3l0.5-3.3h1.1l-0.9,6.3h-0.2l-2.1-3.3l-0.5,3.3H6.3l0.9-6.3H7.5z"/>
		<path class="st10" d="M11.2,61.8l0.9-6.3h1.6c0.3,0,0.5,0.1,0.8,0.2c0.2,0.1,0.4,0.3,0.5,0.5c0.2,0.4,0.3,0.8,0.2,1.5l0,0.2
			c-0.1,0.4-0.2,0.8-0.5,1.2c-0.2,0.3-0.3,0.4-0.5,0.5l0.7,2.3h-1.3l-1-2.5l-0.4,2.5H11.2z M14.1,57.8c0-0.2,0-0.4-0.1-0.5
			c-0.1-0.1-0.3-0.2-0.5-0.2H13l-0.2,1.5h0.4v0h0.2C13.7,58.5,14,58.2,14.1,57.8z"/>
		<path class="st10" d="M15.5,61.8l0.9-6.3h1.1l-0.9,6.3H15.5z"/>
		<path class="st10" d="M20.6,55.5c0.7,0,1.2,0.5,1.5,1l0.1,0.1l-0.9,1.1l-0.1-0.1c-0.2-0.4-0.5-0.5-0.9-0.5c-0.4,0-0.7,0.2-1,0.5
			c-0.3,0.3-0.5,0.7-0.6,1.2c-0.1,0.5,0,0.8,0.2,1.2c0.2,0.3,0.5,0.5,0.9,0.5c0.4,0,0.7-0.2,1-0.5l0.1-0.1l0.6,1.1l-0.1,0.1
			c-0.3,0.3-0.5,0.5-0.9,0.7c-0.3,0.2-0.7,0.3-1,0.3c-0.7,0-1.2-0.3-1.6-0.9c-0.4-0.6-0.5-1.4-0.4-2.3s0.5-1.6,1-2.3
			c0.6-0.6,1.2-0.9,1.9-0.9L20.6,55.5L20.6,55.5z"/>
		<path class="st10" d="M23,55.6h1.1l-0.4,2.4h1.5l0.3-2.4h1.1l-0.9,6.3h-1.1l0.4-2.4h-1.5l-0.4,2.4h-1.1L23,55.6z"/>
		<path class="st10" d="M26.6,61.8l0.9-6.3h1.1l-0.9,6.3H26.6z"/>
		<path class="st10" d="M29.3,55.5h3.1l-0.2,1.5h-1.9l-0.1,0.9h1.5l-0.2,1.5h-1.5l-0.1,0.9h1.9l-0.2,1.5h-3.1L29.3,55.5z"/>
		<path class="st10" d="M34.7,55.5h3.1l-0.2,1.5h-1.9l-0.1,0.9h1.5l-0.2,1.5h-1.5l-0.1,0.9H37l-0.2,1.5h-3.1L34.7,55.5z"/>
		<path class="st10" d="M38.6,55.5l2.1,3.3l0.5-3.3h1.1l-0.9,6.3h-0.2l-2.1-3.3l-0.5,3.3h-1.1l0.9-6.3H38.6z"/>
		<path class="st10" d="M49.2,55.6l-3.1,6.3h-0.2l-1.2-6.3h1.2l0.6,3.2l1.6-3.2H49.2z"/>
		<path class="st10" d="M49,61.8l0.9-6.3H51l-0.9,6.3H49z"/>
		<path class="st10" d="M51.6,55.6H55l-0.2,1.5h-1.1L53,61.8h-1.2l0.7-4.8h-1.1L51.6,55.6z"/>
		<path class="st10" d="M53.9,61.8l3.1-6.3h0.3l1.2,6.3h-1.2l-0.2-1h-1.5l-0.5,1H53.9z M56.2,59.6h0.6l-0.2-0.8L56.2,59.6z"/>
		<path class="st10" d="M60.3,55.5l1.6,4l2.7-4h0.2l-0.9,6.3h-1.1l0.3-2.3l-1.6,2.3l-0.9-2.3l-0.3,2.3h-1.1l0.9-6.3H60.3z"/>
		<path class="st10" d="M64.9,61.8l0.9-6.3h1.1l-0.9,6.3H64.9z"/>
		<path class="st10" d="M67.8,55.5l2.1,3.3l0.5-3.3h1.1l-0.9,6.3h-0.2l-2.1-3.3l-0.5,3.3h-1.1l0.9-6.3H67.8z"/>
		<path class="st10" d="M72.4,55.5h3.1l-0.2,1.5h-1.9l-0.1,0.9h1.5l-0.2,1.5H73l-0.1,0.9h1.9l-0.2,1.5h-3.1L72.4,55.5z"/>
		<path class="st10" d="M76.4,59.8c0,0.2,0.1,0.5,0.3,0.5h0h0.1c0.2,0,0.5-0.2,0.5-0.5c0.1-0.4-0.4-0.5-0.8-0.6
			c-0.6-0.3-1-0.9-0.9-1.8c0.2-1.1,0.9-1.9,1.8-1.9c0.8,0,1.3,0.8,1.3,1.8l0,0.1l-1.2,0.3c0.1-0.4,0-0.7-0.3-0.7
			c-0.2,0-0.4,0.2-0.5,0.5c-0.1,0.4,0.4,0.5,0.7,0.7c0.6,0.2,1,0.8,0.9,1.7c-0.2,1.1-1,1.9-1.9,1.9c-0.8,0-1.4-0.8-1.3-1.8l0-0.1
			l1.2-0.3L76.4,59.8z"/>
		<path class="st10" d="M84.2,59.8c-0.1,0.6-0.3,1-0.6,1.4c-0.4,0.4-0.8,0.6-1.3,0.6h-1.8l0.9-6.3h1.3c0.4,0,0.8,0.2,1,0.5
			c0.2,0.3,0.3,0.8,0.2,1.2c0,0.3-0.2,0.6-0.3,0.8C84.1,58.4,84.3,59.1,84.2,59.8z M83.1,59.7c0-0.2,0-0.3-0.1-0.4
			c-0.1-0.1-0.2-0.2-0.3-0.2c-0.3,0-0.5,0-0.7,0l-0.2,1.3h0.7C82.8,60.3,83.1,60.1,83.1,59.7z M82.5,57.1h-0.3l-0.1,0.9
			c0.1,0,0.1,0,0.2,0c0.2,0,0.4-0.2,0.4-0.4C82.8,57.2,82.7,57.1,82.5,57.1z"/>
		<path class="st10" d="M86.7,59.7c0-0.2,0-0.5-0.2-0.7c-0.2-0.2-0.4-0.3-0.8-0.3l-0.2,0L86,58c0.3-0.1,0.5-0.2,0.6-0.3
			c0.1-0.1,0.1-0.2,0.2-0.3l0-0.1c0-0.2-0.1-0.3-0.2-0.3c-0.1,0-0.3,0.1-0.3,0.3l0,0.1l-1.1-0.3l0-0.1c0.1-0.4,0.3-0.8,0.6-1.1
			c0.3-0.3,0.7-0.4,1-0.4c0.4,0,0.7,0.2,1,0.5c0.2,0.4,0.3,0.8,0.2,1.3c-0.1,0.4-0.2,0.7-0.4,1c0.2,0.4,0.3,0.9,0.2,1.5
			c-0.1,0.6-0.3,1.1-0.7,1.5c-0.4,0.4-0.8,0.6-1.3,0.6c-0.4,0-0.7-0.2-1-0.5c-0.2-0.3-0.4-0.7-0.4-1.2l0-0.1l1.2-0.4l0,0.1
			c0,0.3,0.2,0.5,0.5,0.5C86.3,60.3,86.6,60.1,86.7,59.7z"/>
		<path class="st10" d="M93.2,59.8c-0.1,0.6-0.3,1-0.6,1.4c-0.4,0.4-0.8,0.6-1.3,0.6h-1.8l0.9-6.3h1.3c0.4,0,0.8,0.2,1,0.5
			c0.2,0.3,0.3,0.8,0.2,1.2c0,0.3-0.2,0.6-0.3,0.8C93.2,58.4,93.3,59.1,93.2,59.8z M92.1,59.7c0-0.2,0-0.3-0.1-0.4
			c-0.1-0.1-0.2-0.2-0.3-0.2c-0.3,0-0.5,0-0.7,0l-0.2,1.3h0.7C91.8,60.3,92.1,60.1,92.1,59.7z M91.6,57.1h-0.3l-0.1,0.9
			c0.1,0,0.1,0,0.2,0c0.2,0,0.4-0.2,0.4-0.4C91.9,57.2,91.7,57.1,91.6,57.1z"/>
		<path class="st10" d="M95.9,59.6c0-0.2,0-0.4-0.1-0.5c-0.1-0.1-0.2-0.2-0.4-0.2c-0.2,0-0.4,0-0.5,0.1c-0.1,0.1-0.3,0.2-0.5,0.4
			l-0.1,0.1l-0.6-0.4l0.7-3.3h2.8l-0.2,1.5h-1.8l-0.1,0.3c0.1,0,0.2,0,0.4,0c0.5,0,0.9,0.2,1.2,0.7c0.3,0.4,0.4,1,0.3,1.6
			c-0.1,0.6-0.3,1.2-0.7,1.6c-0.4,0.4-0.9,0.7-1.4,0.7c-0.4,0-0.7-0.1-1-0.4c-0.2-0.3-0.4-0.6-0.5-1l0-0.1l1.2-0.5l0,0.1
			c0.1,0.3,0.3,0.4,0.5,0.4C95.4,60.3,95.8,60,95.9,59.6z"/>
		<path class="st10" d="M102.4,59.8c-0.1,0.6-0.3,1-0.6,1.4c-0.4,0.4-0.8,0.6-1.3,0.6h-1.8l0.9-6.3h1.3c0.4,0,0.8,0.2,1,0.5
			c0.2,0.3,0.3,0.8,0.2,1.2c0,0.3-0.2,0.6-0.3,0.8C102.4,58.4,102.5,59.1,102.4,59.8z M101.3,59.7c0-0.2,0-0.3-0.1-0.4
			c-0.1-0.1-0.2-0.2-0.3-0.2c-0.3,0-0.5,0-0.7,0l-0.2,1.3h0.7C101,60.3,101.3,60.1,101.3,59.7z M100.8,57.1h-0.3l-0.1,0.9
			c0.1,0,0.1,0,0.2,0c0.2,0,0.4-0.2,0.4-0.4C101.1,57.2,100.9,57.1,100.8,57.1z"/>
		<path class="st10" d="M104.9,55.6l1.4,0l-1.1,1.8c0.4,0.1,0.7,0.3,0.9,0.7c0.2,0.4,0.3,0.9,0.2,1.5c-0.1,0.6-0.3,1.2-0.7,1.6
			c-0.4,0.4-0.9,0.7-1.4,0.7c-0.5,0-0.9-0.2-1.2-0.7c-0.3-0.4-0.3-1-0.3-1.6c0.1-0.4,0.2-0.8,0.4-1.1c0-0.1,0.1-0.2,0.1-0.2
			L104.9,55.6z M104.7,58.7L104.7,58.7c-0.4,0-0.7,0.4-0.8,0.8c-0.1,0.5,0.2,0.8,0.5,0.8c0.3,0,0.7-0.4,0.8-0.8
			C105.2,59.1,105,58.7,104.7,58.7z"/>
		<path class="st10" d="M111.7,59.8c-0.1,0.6-0.3,1-0.6,1.4c-0.4,0.4-0.8,0.6-1.3,0.6h-1.8l0.9-6.3h1.3c0.4,0,0.8,0.2,1,0.5
			c0.2,0.3,0.3,0.8,0.2,1.2c0,0.3-0.2,0.6-0.3,0.8C111.6,58.4,111.8,59.1,111.7,59.8z M110.5,59.7c0-0.2,0-0.3-0.1-0.4
			c-0.1-0.1-0.2-0.2-0.3-0.2c-0.3,0-0.5,0-0.7,0l-0.2,1.3h0.7C110.2,60.3,110.5,60.1,110.5,59.7z M110,57.1h-0.3l-0.1,0.9
			c0.1,0,0.1,0,0.2,0c0.2,0,0.4-0.2,0.4-0.4C110.3,57.2,110.1,57.1,110,57.1z"/>
		<path class="st10" d="M112.4,56.1l1.6-0.6l-0.9,6.4H112l0.7-4.4l-0.5,0.2L112.4,56.1z"/>
		<path class="st10" d="M115.3,57.9l0,0.1h-1.1l0-0.1c0.1-0.7,0.3-1.2,0.7-1.7c0.4-0.5,0.9-0.7,1.4-0.7c0.5,0,0.9,0.2,1.2,0.7
			c0.3,0.4,0.4,1,0.3,1.6c-0.1,0.4-0.2,0.7-0.4,1.1c-0.2,0.4-0.4,0.7-0.7,1c-0.1,0.2-0.3,0.3-0.4,0.4h1.1l-0.2,1.5h-3.6l0.3-0.9
			c0.6-0.5,1.3-1.1,1.8-1.7c0.3-0.3,0.5-0.6,0.7-0.8s0.3-0.4,0.3-0.6c0.1-0.5-0.2-0.8-0.5-0.8C115.7,57.1,115.4,57.4,115.3,57.9z"/>
	</g>
</g>
<path d="M117.8,168.3C117.8,168.3,117.8,168.3,117.8,168.3c-0.8-0.8-1.7-1.4-2.8-1.7c1.6-2,2-4.4,2.2-6.9c-2.5,0.2-4.8,0.6-6.9,2.2
	c-0.3-1.1-0.9-2-1.7-2.7c0.3-0.4,0.7-0.8,1-1.3c0.3-0.5,0.5-1,0.7-1.4c2,1.5,4.3,2,6.8,2.2c-0.2-2.5-0.6-4.8-2.2-6.9
	c1.1-0.3,2-0.9,2.7-1.7c0,0,0,0,0,0v-3c-0.2,0-0.4,0.1-0.6,0.2c-0.2,0.2-0.3,0.4-0.3,0.6c0,0.4,0.2,0.7,0.5,0.8
	c-0.7,1.1-2.8,2.3-3.9,2.3c-0.2-0.6-0.4-0.9-0.8-0.9c-0.4,0-0.8,0.2-0.9,0.6c-0.1,0.4,0,0.8,0.3,1c0.1,0.1,0.3,0.2,0.5,0.2
	c0.3,0,0.6-0.1,0.8-0.4c1.4,1.7,2.3,3.7,2.7,5.9c-2.2-0.3-4.2-1.3-5.9-2.7c0.4-0.5,0.5-0.9,0.2-1.3c-0.2-0.3-0.7-0.5-1-0.3
	c-0.4,0.1-0.6,0.5-0.6,0.9c0,0.5,0.3,0.7,0.9,0.9c0.1,1-1.3,3.3-2.3,3.9c-0.4-0.5-0.7-0.6-1.1-0.5c-0.4,0.1-0.6,0.5-0.6,0.9
	c0,0.4,0.2,0.7,0.6,0.8c0.4,0.1,0.8,0,1.1-0.5c1,0.6,2.4,3,2.3,3.9c-0.6,0.2-0.9,0.4-0.9,0.9c0,0.4,0.2,0.7,0.6,0.9
	c0.4,0.1,0.8,0,1-0.3c0.3-0.4,0.2-0.7-0.2-1.3c1.7-1.4,3.7-2.3,5.9-2.7c-0.4,2.3-1.3,4.2-2.7,5.9c-0.4-0.4-0.8-0.5-1.2-0.2
	c-0.3,0.2-0.5,0.6-0.4,1c0.1,0.4,0.4,0.7,0.8,0.6c0.2,0,0.4-0.1,0.5-0.1c0.3-0.2,0.4-0.5,0.4-0.8c1.2,0,3.6,1.4,3.9,2.3
	c-0.4,0.3-0.6,0.6-0.5,1.1c0.1,0.4,0.4,0.6,0.8,0.7c0,0,0,0,0.1,0V168.3z"/>
<g>
	<path class="st10" d="M2.9,2.5h2.4c1,0,1.7,0.2,2.1,0.5s0.7,0.9,0.7,1.7c0,0.5-0.1,0.9-0.3,1.3S7.3,6.5,7,6.6v0.1
		C7.4,6.8,7.8,7,8,7.3c0.2,0.3,0.3,0.8,0.3,1.3c0,0.8-0.2,1.4-0.7,1.9c-0.5,0.5-1.1,0.7-2,0.7H2.9V2.5z M4.7,5.8h0.6
		c0.3,0,0.5-0.1,0.6-0.2C6.1,5.5,6.2,5.3,6.2,5c0-0.5-0.3-0.7-0.9-0.7H4.7V5.8z M4.7,7.5v1.8h0.7c0.6,0,0.9-0.3,0.9-0.9
		c0-0.3-0.1-0.5-0.2-0.7S5.7,7.5,5.4,7.5H4.7z"/>
	<path class="st10" d="M16,6.8c0,1.5-0.3,2.6-0.9,3.4c-0.6,0.8-1.4,1.2-2.5,1.2c-1.1,0-1.9-0.4-2.5-1.2S9.2,8.3,9.2,6.8
		c0-1.5,0.3-2.6,0.9-3.3s1.4-1.2,2.5-1.2c1.1,0,2,0.4,2.5,1.1C15.7,4.2,16,5.3,16,6.8z M11.2,6.8c0,1.7,0.5,2.5,1.4,2.5
		c0.5,0,0.8-0.2,1.1-0.6S14,7.7,14,6.8c0-0.9-0.1-1.5-0.4-1.9s-0.6-0.6-1.1-0.6C11.7,4.3,11.2,5.1,11.2,6.8z"/>
	<path class="st10" d="M17.3,11.2V2.5h1.9v8.8H17.3z"/>
	<path class="st10" d="M25.3,8.6c0,0.5-0.1,1-0.3,1.4c-0.2,0.4-0.5,0.7-1,1s-0.9,0.4-1.5,0.4c-0.5,0-0.9,0-1.2-0.1
		c-0.3-0.1-0.6-0.2-1-0.4V8.7c0.4,0.2,0.7,0.4,1.1,0.5c0.4,0.1,0.7,0.2,1.1,0.2c0.3,0,0.5-0.1,0.6-0.2c0.1-0.1,0.2-0.3,0.2-0.5
		c0-0.1,0-0.2-0.1-0.3c-0.1-0.1-0.1-0.2-0.3-0.3c-0.1-0.1-0.4-0.3-0.9-0.6c-0.5-0.3-0.8-0.5-1-0.8S20.7,6.3,20.6,6s-0.2-0.7-0.2-1.1
		c0-0.8,0.2-1.4,0.7-1.9s1.1-0.7,1.9-0.7c0.7,0,1.5,0.2,2.2,0.6l-0.6,1.8C24,4.4,23.5,4.2,23,4.2c-0.2,0-0.4,0.1-0.5,0.2
		c-0.1,0.1-0.2,0.2-0.2,0.4c0,0.2,0.1,0.3,0.2,0.5C22.6,5.4,23,5.6,23.7,6c0.6,0.3,1,0.7,1.3,1.1C25.1,7.5,25.3,8,25.3,8.6z"/>
	<path class="st10" d="M30.9,8.6c0,0.5-0.1,1-0.3,1.4c-0.2,0.4-0.5,0.7-1,1s-0.9,0.4-1.5,0.4c-0.5,0-0.9,0-1.2-0.1
		c-0.3-0.1-0.6-0.2-1-0.4V8.7c0.4,0.2,0.7,0.4,1.1,0.5c0.4,0.1,0.7,0.2,1.1,0.2c0.3,0,0.5-0.1,0.6-0.2C29,9.1,29,9,29,8.8
		c0-0.1,0-0.2-0.1-0.3c-0.1-0.1-0.1-0.2-0.3-0.3c-0.1-0.1-0.4-0.3-0.9-0.6c-0.5-0.3-0.8-0.5-1-0.8S26.3,6.3,26.2,6s-0.2-0.7-0.2-1.1
		c0-0.8,0.2-1.4,0.7-1.9s1.1-0.7,1.9-0.7c0.7,0,1.5,0.2,2.2,0.6l-0.6,1.8c-0.7-0.4-1.2-0.6-1.7-0.6c-0.2,0-0.4,0.1-0.5,0.2
		c-0.1,0.1-0.2,0.2-0.2,0.4c0,0.2,0.1,0.3,0.2,0.5c0.1,0.1,0.5,0.4,1.2,0.7c0.6,0.3,1,0.7,1.3,1.1C30.8,7.5,30.9,8,30.9,8.6z"/>
	<path class="st10" d="M38.5,6.8c0,1.5-0.3,2.6-0.9,3.4c-0.6,0.8-1.4,1.2-2.5,1.2c-1.1,0-1.9-0.4-2.5-1.2c-0.6-0.8-0.9-1.9-0.9-3.4
		c0-1.5,0.3-2.6,0.9-3.3c0.6-0.8,1.4-1.2,2.5-1.2c1.1,0,2,0.4,2.5,1.1C38.3,4.2,38.5,5.3,38.5,6.8z M33.7,6.8c0,1.7,0.5,2.5,1.4,2.5
		c0.5,0,0.8-0.2,1.1-0.6c0.2-0.4,0.3-1.1,0.3-1.9c0-0.9-0.1-1.5-0.4-1.9s-0.6-0.6-1.1-0.6C34.2,4.3,33.7,5.1,33.7,6.8z"/>
	<path class="st10" d="M46.5,11.2H44L41.4,5h0c0.1,1,0.1,1.7,0.1,2.2v3.9h-1.7V2.5h2.5l2.5,6.1h0c0-0.9-0.1-1.6-0.1-2.1v-4h1.7V11.2
		z"/>
	<path class="st10" d="M54.7,11.2h-4.2V2.5h4.2v1.9h-2.3v1.4h2.1v1.9h-2.1v1.7h2.3V11.2z"/>
	<path class="st10" d="M62.6,11.2h-2.5L57.5,5h0c0.1,1,0.1,1.7,0.1,2.2v3.9h-1.7V2.5h2.5l2.5,6.1h0c0-0.9-0.1-1.6-0.1-2.1v-4h1.7
		V11.2z"/>
	<path class="st10" d="M68.2,11.2h-4.2V2.5h4.2v1.9H66v1.4h2.1v1.9H66v1.7h2.3V11.2z"/>
	<path class="st10" d="M71.3,8v3.2h-1.9V2.5h2.3c1.9,0,2.9,0.9,2.9,2.6c0,1-0.4,1.8-1.2,2.4l2,3.8h-2.1L71.8,8H71.3z M71.3,6.2h0.4
		c0.7,0,1-0.4,1-1.1c0-0.6-0.3-0.9-1-0.9h-0.4V6.2z"/>
	<path class="st10" d="M78.9,6.1h3v4.7c-0.8,0.4-1.7,0.5-2.7,0.5c-1.1,0-1.9-0.4-2.5-1.2c-0.6-0.8-0.9-1.9-0.9-3.3
		c0-1.4,0.3-2.5,1-3.3s1.5-1.2,2.7-1.2c0.4,0,0.9,0.1,1.2,0.2c0.4,0.1,0.7,0.2,1,0.4l-0.6,1.9c-0.5-0.3-1.1-0.5-1.7-0.5
		c-0.6,0-1,0.2-1.3,0.7c-0.3,0.4-0.5,1.1-0.5,1.9c0,0.8,0.1,1.4,0.4,1.9s0.7,0.6,1.2,0.6c0.3,0,0.5,0,0.8-0.1V7.9h-1.2V6.1z"/>
	<path class="st10" d="M83.3,11.2V2.5h1.9v8.8H83.3z"/>
	<path class="st10" d="M91.3,8.6c0,0.5-0.1,1-0.3,1.4s-0.5,0.7-1,1s-0.9,0.4-1.5,0.4c-0.5,0-0.9,0-1.2-0.1c-0.3-0.1-0.6-0.2-1-0.4
		V8.7c0.4,0.2,0.7,0.4,1.1,0.5c0.4,0.1,0.7,0.2,1.1,0.2c0.3,0,0.5-0.1,0.6-0.2s0.2-0.3,0.2-0.5c0-0.1,0-0.2-0.1-0.3
		c-0.1-0.1-0.1-0.2-0.3-0.3c-0.1-0.1-0.4-0.3-0.9-0.6c-0.5-0.3-0.8-0.5-1-0.8S86.8,6.3,86.6,6c-0.1-0.3-0.2-0.7-0.2-1.1
		c0-0.8,0.2-1.4,0.7-1.9c0.5-0.5,1.1-0.7,1.9-0.7c0.7,0,1.5,0.2,2.2,0.6l-0.6,1.8c-0.7-0.4-1.2-0.6-1.7-0.6c-0.2,0-0.4,0.1-0.5,0.2
		c-0.1,0.1-0.2,0.2-0.2,0.4c0,0.2,0.1,0.3,0.2,0.5c0.1,0.1,0.5,0.4,1.2,0.7c0.6,0.3,1,0.7,1.3,1.1C91.2,7.5,91.3,8,91.3,8.6z"/>
	<path class="st10" d="M96.7,11.2l-0.3-1.6h-2.3l-0.4,1.6h-2.1l2.3-8.8h2.5l2.3,8.8H96.7z M96,7.6l-0.3-1.4
		c-0.1-0.3-0.2-0.7-0.3-1.2c-0.1-0.5-0.2-0.9-0.2-1.1c0,0.2-0.1,0.5-0.2,1c-0.1,0.5-0.3,1.4-0.6,2.8H96z"/>
	<path class="st10" d="M106.2,11.2h-2.5L101.2,5h0c0.1,1,0.1,1.7,0.1,2.2v3.9h-1.7V2.5h2.5l2.5,6.1h0c0-0.9-0.1-1.6-0.1-2.1v-4h1.7
		V11.2z"/>
	<path class="st10" d="M110.8,11.2h-1.9V4.4h-1.7V2.5h5.3v1.9h-1.7V11.2z"/>
	<path class="st10" d="M117.6,11.2h-4.2V2.5h4.2v1.9h-2.3v1.4h2.1v1.9h-2.1v1.7h2.3V11.2z"/>
</g>
<g>
	<path class="st10" d="M6.6,42.4c-0.5,0-0.9,0.3-1.2,0.9c-0.3,0.6-0.4,1.4-0.4,2.4c0,2.2,0.6,3.2,1.8,3.2c0.4,0,0.7-0.1,1.1-0.2
		c0.3-0.1,0.7-0.3,1-0.5v2.6c-0.7,0.4-1.5,0.6-2.4,0.6c-1.3,0-2.2-0.5-2.9-1.5s-1-2.4-1-4.3c0-1.2,0.2-2.2,0.5-3.1s0.8-1.6,1.4-2
		c0.6-0.5,1.3-0.7,2.1-0.7c0.9,0,1.8,0.3,2.6,0.8l-0.7,2.4c-0.3-0.2-0.6-0.4-0.9-0.5S7,42.4,6.6,42.4z"/>
	<path class="st10" d="M15.6,51.3l-0.4-2.1h-2.7L12,51.3H9.6l2.7-11.3h3L18,51.3H15.6z M14.7,46.7l-0.4-1.8
		c-0.1-0.4-0.2-0.9-0.3-1.6c-0.1-0.6-0.2-1.1-0.2-1.4c0,0.3-0.1,0.7-0.2,1.3c-0.1,0.6-0.3,1.8-0.7,3.5H14.7z"/>
	<path class="st10" d="M21.1,51.3h-2.2V40.1h4.9v2.4h-2.7v2.1h2.5v2.4h-2.5V51.3z"/>
	<path class="st10" d="M30.1,51.3h-4.9V40.1h4.9v2.4h-2.7v1.8h2.5v2.4h-2.5v2.1h2.7V51.3z"/>
	<path class="st10" d="M31.6,51.3V40.1h2.3v11.2H31.6z"/>
	<path class="st10" d="M43.5,51.3h-2.9l-3-7.9h-0.1c0.1,1.2,0.1,2.2,0.1,2.8v5.1h-2V40.1h2.9l3,7.8h0c-0.1-1.1-0.1-2-0.1-2.7v-5.1h2
		V51.3z"/>
	<path class="st10" d="M50.2,51.3h-4.9V40.1h4.9v2.4h-2.7v1.8H50v2.4h-2.5v2.1h2.7V51.3z"/>
	<path class="st10" d="M60.3,51.3l-0.6-0.8c-0.3,0.3-0.6,0.5-0.8,0.6s-0.5,0.2-0.7,0.2c-0.3,0.1-0.6,0.1-0.9,0.1
		c-0.6,0-1.1-0.1-1.6-0.4c-0.5-0.3-0.8-0.7-1.1-1.2c-0.2-0.5-0.4-1.1-0.4-1.7c0-1.3,0.5-2.4,1.5-3.1c-0.2-0.4-0.4-0.7-0.5-1.1
		S55,43.1,55,42.6c0-0.8,0.2-1.5,0.7-1.9c0.5-0.5,1.1-0.7,1.9-0.7c0.8,0,1.4,0.2,1.9,0.7c0.4,0.5,0.7,1.1,0.7,2
		c0,0.6-0.1,1.1-0.4,1.6c-0.2,0.5-0.6,0.9-1.1,1.4l1.1,1.4c0.3-0.6,0.5-1.3,0.6-2h2.3c-0.1,0.7-0.3,1.4-0.5,2.1
		c-0.2,0.7-0.5,1.3-0.8,1.8l1.8,2.4H60.3z M56.5,48c0,0.3,0.1,0.6,0.3,0.8s0.4,0.3,0.7,0.3c0.2,0,0.4,0,0.6-0.1
		c0.2-0.1,0.3-0.2,0.4-0.3L57,46.8C56.7,47.1,56.5,47.5,56.5,48z M58.2,42.6c0-0.3-0.1-0.4-0.2-0.5c-0.1-0.1-0.2-0.2-0.4-0.2
		c-0.2,0-0.3,0.1-0.4,0.2c-0.1,0.1-0.2,0.3-0.2,0.6c0,0.4,0.2,0.8,0.5,1.2c0.2-0.2,0.4-0.4,0.5-0.6C58.1,43.1,58.2,42.9,58.2,42.6z"
		/>
	<path class="st10" d="M70.7,51.3h-2.2v-8.7h-2v-2.5h6.3v2.5h-2V51.3z"/>
	<path class="st10" d="M79,51.3l-0.4-2.1h-2.7l-0.4,2.1H73l2.7-11.3h3l2.7,11.3H79z M78.1,46.7l-0.4-1.8c-0.1-0.4-0.2-0.9-0.3-1.6
		c-0.1-0.6-0.2-1.1-0.2-1.4c0,0.3-0.1,0.7-0.2,1.3c-0.1,0.6-0.3,1.8-0.7,3.5H78.1z"/>
	<path class="st10" d="M89.4,40.1v6.8c0,1.5-0.3,2.6-0.9,3.4s-1.5,1.2-2.7,1.2c-1.1,0-2-0.4-2.6-1.2s-0.9-1.9-0.9-3.4v-6.8h2.3v6.6
		c0,0.8,0.1,1.4,0.3,1.7c0.2,0.4,0.5,0.5,1,0.5c0.5,0,0.8-0.2,1-0.5c0.2-0.4,0.3-0.9,0.3-1.7v-6.6H89.4z"/>
	<path class="st10" d="M93.4,47.2v4.1h-2.2V40.1h2.7c2.3,0,3.4,1.1,3.4,3.3c0,1.3-0.5,2.3-1.4,3l2.4,4.9h-2.5l-1.8-4.1H93.4z
		 M93.4,45h0.4c0.8,0,1.2-0.5,1.2-1.4c0-0.8-0.4-1.2-1.2-1.2h-0.4V45z"/>
	<path class="st10" d="M99,51.3V40.1h2.3v11.2H99z"/>
	<path class="st10" d="M110.9,51.3H108l-3-7.9h-0.1c0.1,1.2,0.1,2.2,0.1,2.8v5.1h-2V40.1h2.9l3,7.8h0c-0.1-1.1-0.1-2-0.1-2.7v-5.1h2
		V51.3z"/>
	<path class="st10" d="M117.6,51.3h-4.9V40.1h4.9v2.4H115v1.8h2.5v2.4H115v2.1h2.7V51.3z"/>
</g>
<g>
	<g>
		<path class="st11" d="M117.6,173.4"/>
		<path class="st11" d="M314.3,472.6"/>
		<path class="st11" d="M429.7,472.6"/>
		<path class="st11" d="M314.3,478.5"/>
		<path class="st11" d="M429.7,478.5"/>
		<path class="st11" d="M314.3,484.5"/>
		<path class="st11" d="M429.7,484.5"/>
		<path class="st11" d="M314.3,490.4"/>
		<path class="st11" d="M314.3,496.3"/>
		<path class="st11" d="M429.7,496.3"/>
		<path class="st11" d="M314.3,502.3"/>
		<path class="st11" d="M429.7,502.3"/>
	</g>
</g>
<path class="st10" d="M99.6,31.4c0.8,0,1.3-0.4,1.7-1.2c0.4-0.8,0.5-2,0.5-3.7c0-1.7-0.2-2.9-0.6-3.7c-0.4-0.8-0.9-1.2-1.6-1.2
	c-1.5,0-2.2,1.6-2.2,4.9C97.4,29.8,98.1,31.4,99.6,31.4z"/>
<g>
	<polygon class="st10" points="8.9,36 8.9,35.5 5.9,36 	"/>
	<path class="st10" d="M18.3,36.2c1.5,0,2.7-0.6,3.5-1.8c0.2-0.3,0.3-0.6,0.5-0.9L15,34.6C15.8,35.6,16.9,36.2,18.3,36.2z"/>
	<polygon class="st10" points="24.6,33.1 24.6,36 33.2,36 33.2,32.3 30.2,32.3 24.6,33.1 	"/>
	<path class="st10" d="M40.7,31.6c-0.3,0.5-0.7,0.8-1.3,0.8c-0.6,0-1-0.3-1.3-0.8c-0.1-0.1-0.1-0.3-0.2-0.5l-3,0.5
		c0.2,1.1,0.5,2.1,1,2.8c0.8,1.2,2,1.8,3.5,1.8c1.5,0,2.7-0.6,3.5-1.8c0.7-1,1.1-2.4,1.2-4.2l-3,0.5C40.9,31,40.8,31.4,40.7,31.6z"
		/>
	<polygon class="st10" points="70.9,36 71.1,36 71,35.7 	"/>
	<path class="st10" d="M56,31c-0.4,0.8-1.1,1.2-2,1.2h-0.7v-3.4l-3,0.4V36h3.6c1.8,0,3.2-0.8,4.3-2.3c0.9-1.4,1.4-3.4,1.5-5.8
		l-3.1,0.5C56.5,29.5,56.3,30.4,56,31z"/>
	<path class="st10" d="M67.9,28.6c0.7-0.6,1.2-1.4,1.5-2.3l-7.7,1.2V36h3v-6.1h0.8l2.3,6.1h3.2l0.1-0.3L67.9,28.6z"/>
	<path class="st10" d="M77.2,26.3l0.5,2.8h-2.3c0.3-1.5,0.5-2.8,0.6-3.7L73,25.8L71,35.7l0.1,0.3h3.1l0.6-3.2h3.6l0.5,3.2h3.2
		l-2.4-11.1L77,25.2C77.1,25.6,77.1,26,77.2,26.3z"/>
	<path class="st10" d="M82.8,27.5c0,2.8,0.5,4.9,1.4,6.4c0.9,1.5,2.2,2.3,3.9,2.3c1.5,0,3-0.3,4.2-1v-9.1h-4.7v3.5h2v2.6
		c-0.4,0.1-0.8,0.2-1.2,0.2c-0.8,0-1.4-0.4-1.9-1.2c-0.4-0.8-0.6-2-0.6-3.6c0-1.6,0.2-2.8,0.7-3.7c0-0.1,0.1-0.1,0.1-0.2l-3.6,0.5
		C83,25.2,82.8,26.3,82.8,27.5z"/>
	<path class="st10" d="M94.2,27.5c0,2.8,0.5,5,1.4,6.5c0.9,1.5,2.2,2.2,4,2.2c1.7,0,3.1-0.7,4-2.2s1.4-3.6,1.4-6.5
		c0-2.8-0.4-4.9-1.3-6.3l-8.7,1.3C94.5,23.8,94.2,25.5,94.2,27.5z M99.6,22.6c0.7,0,1.3,0.4,1.6,1.2c0.4,0.8,0.6,2,0.6,3.7
		c0,1.7-0.2,2.9-0.5,3.7c-0.4,0.8-0.9,1.2-1.7,1.2c-1.5,0-2.2-1.6-2.2-4.9C97.4,24.2,98.1,22.6,99.6,22.6z"/>
	<path class="st10" d="M114.7,19.5v7.2c0,1,0,2.4,0.1,4.1h0l-3.7-10.8l-4.2,0.6V36h2.6v-7.6c0-1,0-2.4-0.1-4.3h0.1l4,11.9h3.9V19.1
		L114.7,19.5z"/>
</g>
<g>
	<polygon class="st10" points="12.5,15 9.3,15 7.4,21.2 5.6,15 2.3,15 5.9,25.4 5.9,31.8 8.9,31.4 8.9,25.3 	"/>
	<path class="st10" d="M23.1,15h-3v9.9c0,1.2-0.1,2.1-0.4,2.6c-0.3,0.5-0.7,0.8-1.3,0.8c-0.6,0-1-0.3-1.3-0.8
		c-0.3-0.5-0.4-1.4-0.4-2.6V15h-3v10.2c0,2.2,0.4,3.9,1.2,5.1c0,0.1,0.1,0.1,0.1,0.2l7.3-1.1c0.5-1.1,0.7-2.5,0.7-4.2V15z"/>
	<polygon class="st10" points="33.1,17.8 33.1,15 24.7,15 24.7,18.7 29.4,18.7 24.6,29 30.2,28.2 28.3,28.2 	"/>
	<path class="st10" d="M37.7,24.9V15h-3v10.2c0,0.8,0.1,1.5,0.2,2.2l3-0.5C37.8,26.5,37.7,25.8,37.7,24.9z"/>
	<path class="st10" d="M44.1,15h-3v9.9c0,0.7,0,1.2-0.1,1.7l3-0.5c0-0.3,0-0.6,0-0.9V15z"/>
	<path class="st10" d="M58.3,17.1c-1-1.4-2.3-2.1-4.1-2.1h-3.8v10.1l3-0.4v-6h0.9c0.8,0,1.4,0.4,1.8,1.1c0.4,0.7,0.6,1.9,0.6,3.4
		c0,0.3,0,0.7,0,1l3.1-0.5c0-0.2,0-0.4,0-0.7C59.7,20.4,59.2,18.4,58.3,17.1z"/>
	<path class="st10" d="M69.7,20c0-3.3-1.5-5-4.5-5h-3.6v8.4l7.7-1.2C69.6,21.6,69.7,20.8,69.7,20z M65.2,22.3h-0.6v-3.8h0.6
		c1,0,1.5,0.6,1.5,1.7C66.8,21.6,66.2,22.3,65.2,22.3z"/>
	<path class="st10" d="M74.5,14.9L73,21.7l2.9-0.4c0.1-0.7,0.2-1.2,0.3-1.6c0.1-0.9,0.2-1.5,0.3-1.9c0.1,0.4,0.2,1.1,0.3,2.1
		c0.1,0.5,0.1,0.9,0.2,1.3l2.7-0.4l-1.2-5.8H74.5z"/>
	<path class="st10" d="M90.6,15c-0.6-0.2-1.3-0.3-2-0.3c-1.8,0-3.2,0.8-4.3,2.3c-0.6,0.8-1,1.9-1.2,3.1l3.6-0.5
		c0.5-0.7,1.1-1.1,1.9-1.1c0.7,0,1.4,0.2,2.1,0.5l0.7-0.1l0.8-3.1C91.7,15.5,91.2,15.2,90.6,15z"/>
	<path class="st10" d="M99.6,14.7c-1.7,0-3.1,0.7-4,2.2c-0.3,0.4-0.5,0.9-0.7,1.4l8.7-1.3c0,0,0-0.1-0.1-0.1
		C102.7,15.5,101.3,14.7,99.6,14.7z"/>
	<polygon class="st10" points="110.8,15 106.9,15 106.9,16.6 111.1,15.9 	"/>
	<polygon class="st10" points="114.7,15 114.7,15.4 117.3,15 	"/>
</g>
</svg>
