<?xml version="1.0" encoding="utf-8"?>
<!-- Generator: Adobe Illustrator 24.1.2, SVG Export Plug-In . SVG Version: 6.00 Build 0)  -->
<svg version="1.1" id="Calque_1" xmlns="http://www.w3.org/2000/svg" xmlns:xlink="http://www.w3.org/1999/xlink" x="0px" y="0px"
	 viewBox="0 0 119.9 136.5" style="enable-background:new 0 0 119.9 136.5;" xml:space="preserve">
<style type="text/css">
	.st0{fill-rule:evenodd;clip-rule:evenodd;fill:none;stroke:#000000;stroke-width:0.5;stroke-miterlimit:10;}
	.st1{fill:none;stroke:#000000;stroke-width:0.5;stroke-miterlimit:10;}
	.st2{fill-rule:evenodd;clip-rule:evenodd;fill:none;}
	.st3{font-family:'ArialMT';}
	.st4{font-size:5.3987px;}
	.st5{letter-spacing:1.1;}
	.st6{letter-spacing:7.7;}
	.st7{letter-spacing:12.1;}
	.st8{letter-spacing:32;}
	.st9{letter-spacing:30.9;}
	.st10{letter-spacing:45.2;}
	.st11{letter-spacing:24.3;}
	.st12{letter-spacing:21;}
</style>
<text transform="matrix(1 0 0 1 -5.5958 206.5753)" style="display:none;"><tspan x="0" y="0" style="display:inline; font-family:'MyriadPro-Regular'; font-size:12px;">avec édulcorant. A Teneur élevée en caféine (32mg</tspan><tspan x="0" y="14.4" style="display:inline; font-family:'MyriadPro-Regular'; font-size:12px;">pour 100ml), déconseillé aux enfants, aux femmes</tspan><tspan x="0" y="28.8" style="display:inline; font-family:'MyriadPro-Regular'; font-size:12px;">enceintes ou allaitantes. A consommer avec</tspan><tspan x="0" y="43.2" style="display:inline; font-family:'MyriadPro-Regular'; font-size:12px;">modération. Les vitamines B3, B5, B6 et B12</tspan><tspan x="0" y="57.6" style="display:inline; font-family:'MyriadPro-Regular'; font-size:12px;">contribuent à réduire la fatigue. Ingrédients : eau</tspan><tspan x="0" y="72" style="display:inline; font-family:'MyriadPro-Regular'; font-size:12px;">gazéifiée, sucre, acidifiant: acide citrique, correcteur d&apos;</tspan><tspan x="0" y="86.4" style="display:inline; font-family:'MyriadPro-Regular'; font-size:12px;">acidité : citrate de sodium, arôme naturel, taurine,</tspan><tspan x="0" y="100.8" style="display:inline; font-family:'MyriadPro-Regular'; font-size:12px;">caféine 0,03%, édulcorant : glycosides de stéviol,</tspan><tspan x="0" y="115.2" style="display:inline; font-family:'MyriadPro-Regular'; font-size:12px;">colorants : concentré (patate douce, carotte), niacine,</tspan><tspan x="0" y="129.6" style="display:inline; font-family:'MyriadPro-Regular'; font-size:12px;">acide pantothénique, vitamine B6, vitamine B12.</tspan><tspan x="0" y="144" style="display:inline; font-family:'MyriadPro-Regular'; font-size:12px;">Pasteurisé. Un régime alimentaire varié et équilibré ainsi</tspan><tspan x="0" y="158.4" style="display:inline; font-family:'MyriadPro-Regular'; font-size:12px;">qu&apos;un mode de vie sain sont fortement recomman-</tspan><tspan x="0" y="172.8" style="display:inline; font-family:'MyriadPro-Regular'; font-size:12px;">dés. À consommer de préférence avant fin : voir fond.</tspan></text>
<g>
	<path class="st0" d="M74.4,131.5v2h-5.1c0.1-0.8,0.2-1.5,0.5-2.2c0.3-0.7,0.8-1.6,1.6-2.7c0.7-0.9,1.1-1.5,1.2-1.9
		c0.2-0.5,0.3-0.9,0.3-1.3c0-0.5-0.1-0.9-0.3-1.1c-0.2-0.3-0.4-0.4-0.7-0.4c-0.3,0-0.5,0.1-0.7,0.4c-0.2,0.3-0.3,0.7-0.3,1.4
		l-1.5-0.2c0.1-1.2,0.4-2.1,0.8-2.6c0.5-0.5,1-0.8,1.7-0.8c0.8,0,1.3,0.3,1.8,0.9c0.4,0.6,0.6,1.4,0.6,2.3c0,0.5-0.1,1-0.2,1.5
		c-0.1,0.5-0.3,1-0.6,1.5c-0.2,0.3-0.5,0.8-1,1.5c-0.5,0.6-0.8,1.1-0.9,1.3c-0.1,0.2-0.2,0.4-0.3,0.6H74.4z"/>
	<path class="st0" d="M75.4,130.6l1.5-0.2c0,0.5,0.2,0.9,0.4,1.2c0.2,0.3,0.4,0.4,0.7,0.4c0.3,0,0.6-0.2,0.8-0.6
		c0.2-0.4,0.3-0.9,0.3-1.7c0-0.7-0.1-1.2-0.3-1.6c-0.2-0.4-0.5-0.5-0.8-0.5c-0.4,0-0.8,0.3-1.1,0.8l-1.2-0.3l0.7-5.9h3.9v2h-2.7
		l-0.2,1.9c0.3-0.2,0.7-0.4,1-0.4c0.6,0,1.2,0.4,1.6,1.1c0.5,0.7,0.7,1.6,0.7,2.7c0,0.9-0.2,1.8-0.5,2.5c-0.5,1-1.2,1.5-2.1,1.5
		c-0.7,0-1.3-0.3-1.7-0.8C75.7,132.3,75.5,131.5,75.4,130.6"/>
	<path class="st0" d="M88.3,125.2h1.3v1.1c0.5-0.9,1.1-1.3,1.7-1.3c0.4,0,0.7,0.1,0.9,0.3c0.3,0.2,0.5,0.5,0.6,1
		c0.2-0.4,0.5-0.8,0.8-1c0.3-0.2,0.6-0.3,0.9-0.3c0.4,0,0.7,0.1,1,0.4c0.3,0.2,0.5,0.6,0.6,1.1c0.1,0.4,0.1,0.9,0.1,1.7v5.3H95v-4.7
		c0-0.8-0.1-1.3-0.2-1.6c-0.1-0.3-0.3-0.5-0.6-0.5c-0.2,0-0.4,0.1-0.6,0.3c-0.2,0.2-0.3,0.5-0.4,0.8c-0.1,0.4-0.1,0.9-0.1,1.7v4
		h-1.5V129c0-0.8,0-1.3-0.1-1.6c-0.1-0.2-0.1-0.4-0.2-0.5c-0.1-0.1-0.3-0.2-0.4-0.2c-0.2,0-0.4,0.1-0.6,0.3
		c-0.2,0.2-0.3,0.4-0.4,0.8c-0.1,0.3-0.1,0.9-0.1,1.7v4h-1.5V125.2z"/>
	<polygon class="st1" points="97.7,133.5 97.7,122.1 99.5,122.1 99.5,133.5 97.7,133.5 	"/>
	<path class="st0" d="M83.7,123.9c-0.2,0-0.3,0.1-0.5,0.3c-0.1,0.2-0.2,0.5-0.3,0.9c-0.1,0.6-0.1,1.5-0.1,2.9c0,1.3,0,2.3,0.1,2.8
		c0.1,0.5,0.2,0.8,0.3,1c0.1,0.2,0.3,0.2,0.5,0.2c0.2,0,0.3-0.1,0.5-0.3c0.1-0.2,0.2-0.5,0.3-0.9c0.1-0.6,0.1-1.5,0.1-2.8
		c0-1.3,0-2.3-0.1-2.8c-0.1-0.5-0.2-0.8-0.3-1C84.1,123.9,83.9,123.9,83.7,123.9 M83.7,122.1c0.7,0,1.3,0.4,1.7,1.2
		c0.5,0.9,0.7,2.5,0.7,4.6c0,2.2-0.3,3.7-0.7,4.7c-0.4,0.8-1,1.2-1.7,1.2c-0.7,0-1.3-0.4-1.8-1.3c-0.5-0.9-0.7-2.4-0.7-4.6
		c0-2.1,0.3-3.7,0.7-4.6C82.4,122.4,83,122.1,83.7,122.1"/>
</g>
<path class="st0" d="M104.8,128c0,0,0.2-6.5,6.8-6.5c6.6,0,7,6.5,7,6.5h-11.3v3.4c0,0,1,2.2,4,2.2c3,0,4.8-2.1,4.8-2.1h1
	c0,0-1.6,2.8-5.8,2.8c-4.1,0-6.6-3.7-6.6-5.9V128z M107.5,127.5v-3.8c0,0,1.4-1.6,4.2-1.6c2.8,0,4.6,2.1,4.6,2.1v3.4L107.5,127.5z"
	/>
<g>
	<rect x="4.3" y="3.4" class="st2" width="113.8" height="72"/>
	<text transform="matrix(0.9067 0 0 1 4.303 7.2223)"><tspan x="0" y="0" class="st3 st4">Informations</tspan><tspan x="29.7" y="0" class="st3 st4 st5"> </tspan><tspan x="33.2" y="0" class="st3 st4">nutritionnelles moyennes</tspan><tspan x="92.9" y="0" class="st3 st4"> </tspan><tspan x="94.3" y="0" class="st3 st4">pour</tspan><tspan x="105.1" y="0" class="st3 st4"> </tspan><tspan x="106.5" y="0" class="st3 st4">100</tspan><tspan x="115.5" y="0" class="st3 st4"> </tspan><tspan x="116.9" y="0" class="st3 st4">ml</tspan><tspan x="0" y="5.9" class="st3 st4">Valeur</tspan><tspan x="15.6" y="5.9" class="st3 st4"> </tspan><tspan x="17" y="5.9" class="st3 st4">énergétique</tspan><tspan x="45.5" y="5.9" class="st3 st4 st6">	</tspan><tspan x="55.3" y="5.9" class="st3 st4">138 kJ</tspan><tspan x="71.2" y="5.9" class="st3 st4"> </tspan><tspan x="72.6" y="5.9" class="st3 st4">(32,6 kcal)</tspan><tspan x="0" y="11.9" class="st3 st4">Matières grasses</tspan><tspan x="41.1" y="11.9" class="st3 st4 st7">	</tspan><tspan x="55.3" y="11.9" class="st3 st4">0,01 g</tspan><tspan x="70.3" y="11.9" class="st3 st4"> </tspan><tspan x="72.2" y="11.9" class="st3 st4">(dont</tspan><tspan x="84.5" y="11.9" class="st3 st4"> </tspan><tspan x="86.4" y="11.9" class="st3 st4">saturés:</tspan><tspan x="105.7" y="11.9" class="st3 st4"> </tspan><tspan x="107.6" y="11.9" class="st3 st4">0g)</tspan><tspan x="0" y="17.8" class="st3 st4">Glucides</tspan><tspan x="21" y="17.8" class="st3 st4 st8">	</tspan><tspan x="55.3" y="17.8" class="st3 st4">7,4</tspan><tspan x="62.8" y="17.8" class="st3 st4"> </tspan><tspan x="64.2" y="17.8" class="st3 st4">g</tspan><tspan x="67.2" y="17.8" class="st3 st4"> </tspan><tspan x="68.6" y="17.8" class="st3 st4">(dont</tspan><tspan x="80.9" y="17.8" class="st3 st4"> </tspan><tspan x="82.3" y="17.8" class="st3 st4">sucres</tspan><tspan x="98.2" y="17.8" class="st3 st4"> </tspan><tspan x="99.6" y="17.8" class="st3 st4">:</tspan><tspan x="101.1" y="17.8" class="st3 st4"> </tspan><tspan x="102.5" y="17.8" class="st3 st4">7,4</tspan><tspan x="110" y="17.8" class="st3 st4"> </tspan><tspan x="111.4" y="17.8" class="st3 st4">g)</tspan><tspan x="0" y="23.8" class="st3 st4">Fibres</tspan><tspan x="15" y="23.8" class="st3 st4"> </tspan><tspan x="16.9" y="23.8" class="st3 st4">alimentaires</tspan><tspan x="46" y="23.8" class="st3 st4 st6">	</tspan><tspan x="55.3" y="23.8" class="st3 st4">0,01 g</tspan><tspan x="0" y="29.7" class="st3 st4">Protéines</tspan><tspan x="22.8" y="29.7" class="st3 st4 st9">	</tspan><tspan x="55.3" y="29.7" class="st3 st4">0,03</tspan><tspan x="65.8" y="29.7" class="st3 st4"> </tspan><tspan x="67.2" y="29.7" class="st3 st4">g</tspan><tspan x="0" y="35.6" class="st3 st4">Sel</tspan><tspan x="7.8" y="35.6" class="st3 st4 st10">	</tspan><tspan x="55.3" y="35.6" class="st3 st4">0,23</tspan><tspan x="65.8" y="35.6" class="st3 st4"> </tspan><tspan x="67.7" y="35.6" class="st3 st4">g</tspan><tspan x="0" y="41.6" class="st3 st4">Vitamine</tspan><tspan x="21" y="41.6" class="st3 st4"> </tspan><tspan x="22.9" y="41.6" class="st3 st4">B3</tspan><tspan x="29.5" y="41.6" class="st3 st4 st11">	</tspan><tspan x="55.3" y="41.6" class="st3 st4">8</tspan><tspan x="58.3" y="41.6" class="st3 st4"> </tspan><tspan x="60.2" y="41.6" class="st3 st4">mg</tspan><tspan x="67.7" y="41.6" class="st3 st4"> </tspan><tspan x="69.6" y="41.6" class="st3 st4">(50%*)</tspan><tspan x="0" y="47.5" class="st3 st4">Vitamine B5</tspan><tspan x="29.1" y="47.5" class="st3 st4 st11">	</tspan><tspan x="55.3" y="47.5" class="st3 st4">2</tspan><tspan x="58.3" y="47.5" class="st3 st4"> </tspan><tspan x="60.2" y="47.5" class="st3 st4">mg</tspan><tspan x="67.7" y="47.5" class="st3 st4"> </tspan><tspan x="69.6" y="47.5" class="st3 st4">(33%*)</tspan><tspan x="0" y="53.4" class="st3 st4">Vitamine B6</tspan><tspan x="29.1" y="53.4" class="st3 st4 st11">	</tspan><tspan x="55.3" y="53.4" class="st3 st4">2</tspan><tspan x="58.3" y="53.4" class="st3 st4"> </tspan><tspan x="60.2" y="53.4" class="st3 st4">mg (143%*)</tspan><tspan x="0" y="59.4" class="st3 st4">Vitamine B12</tspan><tspan x="32.1" y="59.4" class="st3 st4 st12">	</tspan><tspan x="55.3" y="59.4" class="st3 st4">2</tspan><tspan x="58.3" y="59.4" class="st3 st4"> </tspan><tspan x="59.7" y="59.4" class="st3 st4">µg</tspan><tspan x="65.8" y="59.4" class="st3 st4"> </tspan><tspan x="67.2" y="59.4" class="st3 st4">(80%*)</tspan><tspan x="0" y="65.3" class="st3 st4">(*VNR</tspan><tspan x="15.3" y="65.3" class="st3 st4"> </tspan><tspan x="16.7" y="65.3" class="st3 st4">:</tspan><tspan x="18.2" y="65.3" class="st3 st4"> </tspan><tspan x="19.6" y="65.3" class="st3 st4">V</tspan><tspan x="22.8" y="65.3" class="st3 st4">aleurs</tspan><tspan x="37.5" y="65.3" class="st3 st4"> </tspan><tspan x="38.9" y="65.3" class="st3 st4">Nutritionnelles</tspan><tspan x="73.1" y="65.3" class="st3 st4"> </tspan><tspan x="74.5" y="65.3" class="st3 st4">de</tspan><tspan x="80.5" y="65.3" class="st3 st4"> </tspan><tspan x="81.9" y="65.3" class="st3 st4">Référence).</tspan></text>
	<g>
		<rect x="2.9" y="1.2" class="st1" width="115.4" height="74"/>
		<line class="st1" x1="118.3" y1="8.2" x2="2.9" y2="8.2"/>
		<line class="st1" x1="118.3" y1="14.2" x2="2.9" y2="14.2"/>
		<line class="st1" x1="118.3" y1="20.1" x2="2.9" y2="20.1"/>
		<line class="st1" x1="118.3" y1="26" x2="2.9" y2="26"/>
		<line class="st1" x1="118.3" y1="32" x2="2.9" y2="32"/>
		<line class="st1" x1="118.3" y1="37.9" x2="2.9" y2="37.9"/>
		<line class="st1" x1="118.3" y1="43.8" x2="2.9" y2="43.8"/>
		<line class="st1" x1="118.3" y1="49.8" x2="2.9" y2="49.8"/>
		<line class="st1" x1="118.3" y1="55.7" x2="2.9" y2="55.7"/>
		<line class="st1" x1="118.3" y1="61.7" x2="2.9" y2="61.7"/>
		<line class="st1" x1="118.3" y1="67.6" x2="2.9" y2="67.6"/>
	</g>
</g>
<g>
	<path class="st1" d="M111,104.6c-3.8,0-6.8,3.1-6.8,6.8c0,3.8,3.1,6.8,6.8,6.8c3.8,0,6.8-3.1,6.8-6.8
		C117.8,107.6,114.7,104.6,111,104.6z M104.6,111.4c0-3.5,2.9-6.4,6.4-6.4c1.4,0,2.7,0.5,3.8,1.3c0.9,0.8,1.7,2.1,1.7,3.5
		c0.2,5.3-5.1,6.1-5.6,5.9v1.6c-2.5-0.9-3.5-3.3-3.5-3.3c1.3-2.8,3.5-3.4,3.5-3.4v1.6c2.6-0.8,3.5-3.3,3.5-3.3
		c-1.3-2.9-3.5-3.3-3.5-3.3v1.6c-0.3-0.2-4.9,0.3-5.5,4.7c-0.2,2,0.3,3.4,1.2,4.4C105.4,115,104.6,113.3,104.6,111.4z"/>
	<g>
		<path class="st1" d="M112.1,95.1c-0.6,0.9-0.1,2.2,0.6,2.8c0.6,0.6,1.1,0.7,1.1,0.7l0.3-0.6l0.9,2.4l-2.5,0.5l0.3-0.6l-0.3-0.2
			c-1.1-0.7-1.3-1.6-1.3-1.9C111.1,97.8,110.9,96.2,112.1,95.1"/>
		<path class="st1" d="M112.1,95.1c0.5,1,1.8,1.2,2.7,1c0.8-0.2,1.2-0.5,1.2-0.6l0,0l-0.3-0.6l2.5,0.6l-0.9,2.4l-0.3-0.6l-0.3,0.2
			c-1.1,0.5-2.1,0.2-2.3,0.1C113.8,97.5,112.4,96.8,112.1,95.1"/>
		<path class="st1" d="M116.6,92.6c-0.2,1.2-0.9,1.8-1.2,2c-0.4,0.3-1.7,1.1-3.3,0.5c1.1,0.2,2-0.8,2.3-1.7c0.3-0.8,0.2-1.3,0.2-1.3
			l0,0l-0.7,0l1.8-1.8l1.5,2.1l-0.7,0L116.6,92.6z"/>
		<path class="st0" d="M108.9,91.6c-0.6,0-1-0.5-1-1c0-0.6,0.5-1,1-1s1,0.5,1,1C110,91.1,109.5,91.6,108.9,91.6"/>
		<path class="st1" d="M110.4,87.5c-3.8,0-6.8,3.1-6.8,6.8c0,3.8,3.1,6.8,6.8,6.8c0.2,0,0.4,0,0.6,0l0,0.7l1.2-1.2l-1.4-1.1l0.1,0.7
			c-0.2,0-0.4,0-0.5,0c-0.3,0-0.6,0-0.9-0.1l0-0.2l-0.6-5.5c-0.1-1,0.5-1.2,0.9-1.1l2.1,0.8c0.2,0.1,0.4-0.1,0.4-0.1
			s0.1-0.2-0.1-0.4c0,0-2.8-1.9-3.4-2c-0.8-0.2-1.6,0.5-1.8,1.4l-1,4.9c-0.9-1-1.4-2.4-1.4-3.8c0-3.3,2.7-5.9,5.9-5.9
			c1.8,0,3.3,0.8,4.4,2l0.6-0.6C114.1,88.4,112.3,87.5,110.4,87.5 M107.3,96.6c0.1-0.2,0.2-0.2,0.2-0.2s0.1,0,0.2,0.2l1,3.4
			c-0.8-0.2-1.6-0.6-2.2-1.2L107.3,96.6z"/>
	</g>
</g>
<g>
	<path class="st1" d="M21.7,112.1h-1c-0.1,0-0.2,0-0.2,0c0.5-5.1,1.2-13,1.5-16.6c0-0.4-0.2-0.7-0.6-0.7c-0.4,0-0.7,0.2-0.7,0.6
		c-0.5,5.5-1.9,21.2-1.9,21.4c0,0.3-0.3,0.5-0.6,0.5H7.4c-0.3,0-0.6-0.2-0.6-0.5c0-0.2-1.4-15.9-1.9-21.4c0-0.4-0.4-0.6-0.7-0.6
		c-0.4,0-0.6,0.4-0.6,0.7c0.3,3.6,1.1,11.5,1.5,16.6c-0.1,0-0.2,0-0.2,0h-1c-0.6,0-1.2,0.5-1.2,1.2v4.2c0,0.6,0.5,1.2,1.2,1.2h1
		c0.5,0,0.9-0.3,1.1-0.7c0.4,0.4,0.9,0.7,1.5,0.7h10.7c0.6,0,1.2-0.3,1.5-0.7c0.2,0.4,0.6,0.7,1.1,0.7h1c0.6,0,1.2-0.5,1.2-1.2v-4.2
		C22.9,112.6,22.4,112.1,21.7,112.1"/>
	<path class="st1" d="M10.6,99.9v-0.5c0-0.6-0.2-1.1-0.6-1.3c0.3-0.2,0.5-0.6,0.5-1.2v-0.2c0-1-0.5-1.5-1.6-1.5H7.3v6.4H9
		C10,101.5,10.6,100.9,10.6,99.9 M9.3,99.9c0,0.4-0.2,0.5-0.4,0.5H8.5v-1.6h0.3c0.3,0,0.5,0.1,0.5,0.6V99.9z M9.2,97.1
		c0,0.4-0.2,0.5-0.4,0.5H8.5v-1.3h0.3c0.2,0,0.4,0,0.4,0.5V97.1z"/>
	<path class="st1" d="M12.3,100.4h0.9l0.2,1.1h1.2l-1-6.4H12l-1,6.4h1.2L12.3,100.4z M13.1,99.3h-0.6l0.3-2.1L13.1,99.3z"/>
	<path class="st1" d="M18.3,97.4v-0.7c0-1.1-0.6-1.7-1.6-1.7c-1,0-1.6,0.6-1.6,1.7v3.2c0,1.1,0.6,1.7,1.6,1.7c1,0,1.6-0.6,1.6-1.7
		v-0.9h-1.2v1c0,0.4-0.2,0.5-0.4,0.5c-0.2,0-0.4-0.1-0.4-0.5v-3.3c0-0.4,0.2-0.5,0.4-0.5c0.2,0,0.4,0.1,0.4,0.5v0.8H18.3z"/>
	<path class="st1" d="M11,102.6H9.4v6.4H11c1,0,1.6-0.6,1.6-1.6v-3.1C12.6,103.1,12.1,102.6,11,102.6 M10.6,103.7H11
		c0.2,0,0.4,0,0.4,0.5v3.2c0,0.4-0.2,0.5-0.4,0.5h-0.4V103.7z"/>
	<polygon class="st1" points="16.3,103.7 16.3,102.6 13.4,102.6 13.4,108.9 16.3,108.9 16.3,107.8 14.6,107.8 14.6,106.3 
		15.9,106.3 15.9,105.1 14.6,105.1 14.6,103.7 	"/>
	<polygon class="st1" points="8.1,111.2 9.1,111.2 9.1,116.4 10.4,116.4 10.4,111.2 11.4,111.2 11.4,110 8.1,110 	"/>
	<path class="st1" d="M15.1,115.5v-0.9c0-0.4-0.1-1-0.5-1.3c0.3-0.2,0.5-0.7,0.5-1.2v-0.5c0-1-0.5-1.5-1.6-1.5h-1.6v6.4h1.2v-2.5
		h0.2c0.3,0,0.5,0.1,0.5,0.6v1c0,0.5,0,0.6,0.1,0.8l0.1,0l-0.1,0l0,0.1h1.3l-0.1-0.2C15.1,116,15.1,115.8,15.1,115.5 M13.2,111.2
		h0.3c0.2,0,0.4,0,0.4,0.5v0.6c0,0.4-0.2,0.5-0.4,0.5h-0.2V111.2z"/>
	<rect x="15.9" y="110" class="st1" width="1.2" height="6.4"/>
	<path class="st1" d="M22.4,89.4h-1.1l-1.6-1.4c-0.3-0.3-0.8-0.5-1.4-0.5h-11c-0.5,0-1,0.2-1.4,0.5l-1.6,1.4H3.2
		c-0.7,0-1.3,0.6-1.3,1.4v1.8c0,0.2,0.1,0.5,0.2,0.7c0.1,0.1,0.1,0.2,0.2,0.2c0.2,0.1,0.5,0.2,0.7,0.2h19.6c0.3,0,0.5-0.1,0.7-0.2
		c0.1-0.1,0.2-0.1,0.2-0.2c0.1-0.2,0.2-0.5,0.2-0.7v-1.8C23.7,90.1,23.1,89.4,22.4,89.4 M22.4,92.4H3.2v-1.6c0-0.1,0-0.1,0-0.1h1.4
		c0.2,0,0.3-0.1,0.4-0.2l1.7-1.5c0.1-0.1,0.3-0.1,0.5-0.1h11c0.2,0,0.4,0.1,0.5,0.1l1.7,1.5c0.1,0.1,0.3,0.2,0.4,0.2h1.4
		c0,0,0,0,0,0.1V92.4z"/>
	<path class="st1" d="M18.3,89.5h-11c-0.3,0-0.6,0.2-0.6,0.6c0,0.3,0.2,0.5,0.6,0.5h11c0.3,0,0.6-0.2,0.6-0.5
		C18.9,89.8,18.6,89.5,18.3,89.5"/>
</g>
</svg>
