<svg xmlns="http://www.w3.org/2000/svg" viewBox="0 0 3549 375" xmlns:v="https://vecta.io/nano"><path d="M2684.8 174.5l-14.8 40.7-46.3 119.6c-1.7 4.4-4.5 6.1-9.1 6.1-22.5-.1-45 0-67.5-.1-10.3 0-16.6-9.1-12.9-18.7l93.6-241.4 20.8-54c1.8-4.8 4.4-6.8 9.6-6.8l95.5.1c6.4 0 7.7 1.1 8.4 7.3l17 147.9c.3 2.6.7 5.2 1.3 9.2 1.6-4.7 2.6-8.2 3.9-11.5l56.9-147.6c1.4-3.6 3.8-5.3 7.5-5.3l71.5.1c7.3 0 13.3 10.5 10.4 17.8l-51.6 133-63 162.9c-2 5.1-4.8 7.2-10.3 7.2l-93.5-.1c-7.8 0-9.3-1.4-10.1-9l-11.8-112.8-4.3-42.2c-.1-.8-.2-1.5-.4-2.3-.3-.1-.6-.1-.8-.1zm27.3 156.1c1.9.1 3.3.2 4.8.2l85 .1c3.6 0 5.1-1.2 6.4-4.5l111.9-288.9c2.3-5.9 1.1-7.5-5.1-7.5-20 0-40 .1-60-.1-4.1-.1-5.7 1.4-7.1 5-21.7 57.6-46.3 114-64.8 172.8-1 3-2.6 4.6-5.7 4.3-3.3-.2-4.3-2.5-4.7-5.4l-3.2-27.8L2757 69.1l-4.5-38.8h-94.4c-.7 1.7-1.5 3.5-2.2 5.4l-81 208.9-30.7 79.1c-1.8 4.6-.7 7.1 3.2 7.1h67.1l20.1-51.8 41.9-112.7c2.4-6.4 3.8-13.1 6.2-19.5.6-1.7 3.3-3.8 4.9-3.7 1.7.1 3.4 2.4 4.7 4.1.7.9.6 2.6.7 3.9l4.4 41.2 10.5 100.4 4.2 37.9zm306.1-102.1c-1.4 2-3.4 3.8-4.2 6l-38 98.7c-2.7 7.1-3.5 7.6-10.9 7.6h-75c-10.3 0-16.6-9.1-12.9-18.7l114.4-295.4c1.9-5 4.8-6.9 10.1-6.8l76.5.1c9.1 0 15.6 9.5 12.3 18l-23.8 60.9c-.6 1.5-1.1 3.1-1 5.1l15.8-16.5 59.6-63.3c2.2-2.3 6.3-3.9 9.5-4l89-.3c7.5-.1 8.8 4.9 11.1 9.9 2.1 4.6 1.3 7.9-2.3 11.5L3144.9 145l-24.5 25c-1.4 1.5-2.4 4.4-2 6.5l24.4 146.8c1.8 10.7-4 17.7-15 17.7h-85c-7.8 0-9-1-10-8.5l-12.7-101.1-.3-1.9c-.6-.5-1.1-.7-1.6-1zm68.6 102.3h40.5c4.9 0 6.3-1.7 5.6-6.4l-2.3-13.8-22.6-134.9c-.8-4.7.4-8.1 3.8-11.5l92-92.5 35.2-35.5c1-1 1.9-3 1.6-4.1-.3-1-2.5-2-3.8-2-28.3-.1-56.7-.1-85 0-1.7 0-3.8 1-5 2.3l-61.2 65.2-32 34.4c-1.3 1.4-4.8 2-6.5 1.3-1.3-.6-1.8-3.8-2-5.9-.1-1.3.8-2.8 1.4-4.2l33.6-85.4c2.4-6 1.2-7.7-5.5-7.7-22.5 0-45 .2-67.5-.1-4.6-.1-6.5 1.4-8.2 5.6l-111.5 288c-2.1 5.5-1 7.4 4.9 7.4l69.5.1c3.6 0 5.2-1.2 6.4-4.5l34.7-91.4c3.2-8.9 8.4-14.2 16.6-17.6 5.9-2.4 8.8-.9 9.6 5.5l12.9 103.6c.4 3.4 1.4 4.5 4.8 4.4 13.3-.4 26.6-.3 40-.3zM180.5 254L159 279l-49.4 57.6c-1.9 2.2-5.6 4-8.5 4l-88 .2c-4.2 0-7-1.5-8.5-5.5-.4-1.3-1-2.5-1.7-3.6-2.7-4.4-1.8-7.9 1.6-11.6l41.8-46.4 93.6-103.9c1.1-1.3 1.8-3.6 1.6-5.3L122.4 35.6c-1.2-8 5.1-15.7 13.2-15.7h84.5c5.9 0 7.4 1.3 8 7.1l5.8 65.7c.2 1.8.3 3.6.5 6.2 1.4-1.3 2.3-1.8 3-2.6l60.2-72.1c2.5-3 5.1-4.3 9-4.3h88.5c4.5 0 7 1.8 8.8 5.8 4.4 9.9 4.5 9.9-2.8 17.8L276.7 178.8c-2.5 2.7-3.3 5.1-2.6 8.8l24.6 136.6c1.6 9.1-4.4 16.6-13.5 16.6h-86c-7.1 0-8.4-1.1-9.2-8.2l-9.5-78.6zm38.1-223.5c-.9-.2-1.2-.4-1.5-.4-26.5 0-53-.1-79.5 0-4.5 0-5.4 2.5-4.8 6.6l19 126.9c.8 5-.1 8.7-3.6 12.6L15 323.8c-1.2 1.3-1.6 3.2-2.4 4.9 1.8.7 3.6 2 5.4 2.1l79 .2c3.5 0 5.8-1.1 8-3.7l72.9-85.6c2.2-2.6 4.8-5.1 8-3.3 1.9 1.1 3.3 4.4 3.6 6.8L199 326c.4 3.9 1.6 4.9 5.4 4.9l78-.1c6 0 7.1-1.4 6.1-7.1l-24.6-136.6c-1.1-5.8.4-9.7 4.2-13.8L393.5 36.8c1.2-1.3 1.5-3.3 2.2-4.9-1.7-.6-3.3-1.8-5-1.8l-66-.1c-6.2 0-13.2-1.7-18.2.7-5.2 2.5-8.6 9-12.6 13.8l-57.1 68.2c-1.6 1.9-5.2 3.5-7.5 3-1.6-.3-3.4-4.1-3.7-6.5-1.1-9.2-1.7-18.6-2.5-27.9l-4.5-50.8zm1011.3-15c33.1-.3 66.8 8.8 97 29.6 6.3 4.3 6.7 6 2.4 12.5l-43 65c-4.4 6.7-6.1 6.6-12.9 2.8-11.1-6.2-22.2-13.1-34.1-17.4-27.7-10-51.8-2.8-71.6 18.5-25.5 27.4-38.5 60.6-43.5 97.3-.7 5-.4 10.4.4 15.4 1.7 11.1 8.8 17.3 20.1 17.9 18.9 1.1 37.1-2.6 54.9-8.6 7.4-2.5 14.7-5.2 22.1-7.9 7.9-2.8 17.8 5.3 16.4 13.4l-11.4 64.4c-.5 2.5-2.7 5.7-5 6.6-41.6 17.2-84.6 24.9-129.4 16.9-43-7.7-69.9-39.5-72.5-83.3-2-34.9 6.5-67.7 18.8-99.8 12.7-33 30.8-62.7 55.9-87.8 36.5-36.4 80.2-55.9 135.4-55.5zm90.7 37.4l-2.1-1.7a116.53 116.53 0 0 0-4.6-2.9c-23.6-14.1-49.1-21.3-76.7-22.7-43.7-2.3-83 9.1-117.4 36.3-33.5 26.6-56.3 61-71.7 100.4-12.1 30.9-20.1 62.7-18.1 96.3 2.3 38.5 25.7 66.6 63.6 73.3 41.7 7.4 82.2 1 121.2-14.9 1.4-.6 2.8-2.8 3.1-4.4l9.9-55.5c.3-1.9.2-4.7-1-5.7-1.1-1-4-.6-5.7 0-18.6 6.8-37.4 13.1-57.3 15-6.9.6-14 1-20.9.2-18.3-2.1-29.1-14.2-28.6-33.5.3-11.7 2.2-23.5 5-34.9 7.9-31.9 22-60.7 46.3-83.5 16-15.1 34.8-23 57.3-20.7 15 1.5 28.8 6.6 41.8 14.1l14 8.3 41.9-63.5zm906 181.3l-16.6 42.5-22.1 57.2c-1.9 4.9-4.7 7-10 7l-76-.1c-9.9 0-16.3-9.3-12.8-18.4l114.7-295.9c1.9-4.8 4.7-6.6 9.7-6.6l87.5.4c23.7.5 46.8 4.2 67.2 17.6 18.3 11.9 28.2 29.2 28.6 50.5 1.1 52.6-20.7 93-67.1 119-5.2 2.9-5.9 5.4-4.5 10.7l27.2 106.4c2.1 8.1-4.3 16.3-12.7 16.3h-85.5c-6.5 0-7.8-1.3-9.1-8.6l-18.5-98zm28.4 96.3c1.1.1 1.8.3 2.4.3h80c4.6 0 6.1-2 4.9-6.6l-27.8-109.3c-2.3-9.2-2.3-9.1 6-13.5 45.6-24 67.7-61.9 66.5-113.3-.4-16.3-7.7-29.8-21-39.7-15.4-11.5-33.2-16.5-51.9-17.2-32.6-1.1-65.3-.9-97.9-1.1-1.4 0-3.5 1.7-4.1 3-4.2 10.1-8.1 20.4-12 30.7l-100.7 259.6c-2.2 5.7-1 7.4 5.3 7.4l69 .1c3.6 0 5.2-1 6.5-4.4l38-98.1c2.2-5.8 4.2-6.8 10.7-6.4 5 .3 6.1 3.7 6.9 7.7l13.3 70.6 5.9 30.2zm-704.9-222.7h-44c-11.4 0-17.4-8.8-13.3-19.3l24.2-62.3c1.7-4.4 4.2-6.2 8.9-6.2l208 .1c8.7 0 15.2 9.6 12 17.9l-25.7 65c-1.7 4.3-4.8 5-8.7 5-17.5 0-35 .2-52.5-.2-4.8-.1-6.5 1.6-8.1 5.7l-84 219c-3.1 8.1-3.6 8.4-12.4 8.4h-74c-10.2 0-16.4-9.1-12.7-18.7l79.6-207.3c.9-2.2 1.7-4.4 2.7-7.1zm80.4-77.8c-33.2 0-66.3 0-99.5-.1-3.4 0-5.2.7-6.5 4.2l-22 56.7c-2 5.1-.7 7 4.9 7h46c8.7 0 10.3 2.4 7.1 10.7l-82.3 214.2c-2.5 6.6-1.5 8.1 5.4 8.1l68 .1c4.2 0 6-1.3 7.5-5.2l85-221.7c1.8-4.7 4.2-6.4 9.2-6.3l54 .2c3.3 0 4.9-.9 6.1-4.1l22-55.7c2.6-6.5 1.6-8.1-5.3-8.1h-99.6zM726.9 254h77.2c10.7 0 16.8 8.8 13 18.7l-23.8 61.4c-1.8 4.8-4.6 6.8-9.6 6.8-58.2-.1-116.3 0-174.5-.1-9.4 0-15.6-9.6-12.1-18.5L709.5 32.5c5.1-13.1 3.1-12.5 18.1-12.5h70.5c9.1 0 15.7 9.4 12.4 17.9l-81.9 211.7c-.5 1.3-.9 2.5-1.7 4.4zm-5.6-224c-.6 1.3-1.1 2.3-1.5 3.4L607 324.1c-1.9 4.9-.5 6.7 5.3 6.7l167 .1c3.7 0 5.2-1.3 6.4-4.5l21.3-54.9c2.3-5.9 1.2-7.5-5-7.5h-78.5c-8 0-10.1-2.9-7.2-10.2l37.3-96.3L800.2 37c1.8-4.6.7-6.9-3.4-7h-75.5zm1140.1 310.8h-57.3c-10.3 0-16.6-9.1-12.9-18.7l114.5-295.4c1.9-5 4.9-6.8 10.1-6.8l92 .4c22.9.4 45 5 64.8 17.4 24 15.1 36.5 37.2 39.4 65 3.2 30-4 58.6-13 86.8-12.2 38-31.9 71.7-61.5 98.9-28.2 26-61.5 41.5-99 48.7-26.2 4.9-52.6 3.5-77.1 3.7zM1915.2 30c-.8 2.1-1.6 3.9-2.3 5.7L1851 195.3l-49.6 127.9c-2 5.2-1 7.6 3.5 7.6l103-.5c36.8-.9 70.8-11.7 101.4-32.3 34.5-23.3 58.1-55.4 73.6-93.6 13.1-32.5 22.3-66 19-101.6-1.9-20.2-10.2-37.4-26.1-50.5-16.3-13.5-35.5-19.9-56.1-21.1-20.8-1.2-41.6-.9-62.4-1.2h-42.1zM493.5 19.1c20.3 1 40.6 1.4 60.8 3 13.5 1.1 26.4 5.1 38.4 11.6 25.7 14.1 37.9 36.4 38.3 65 .9 59-34.3 109.2-90.9 130.4-24 9-48.9 12.9-74.4 12.3-5.6-.1-8.4 1.2-10.4 6.9L423 333.1c-2.8 7.2-3.4 7.7-11.3 7.7h-74.5c-10.6 0-16.8-9.1-12.9-19L438.5 26.9c2-5.2 5-7.1 10.4-7 14.8.3 29.7.1 44.5.1.1-.3.1-.6.1-.9zm-44.8 10c-1.1 2.4-1.7 3.8-2.2 5.2L334.1 324c-1.9 4.8-.5 6.8 4.6 6.8l70.5.1c3.2 0 4.6-1.1 5.7-4l31.5-82.5c5.2-13.4 1.8-13.1 18.6-12.9 26.4.3 52.1-3.3 76.6-13.6 51.5-21.6 82.4-69.6 79.2-123.6-.9-14.5-5.6-27.7-15.7-38.5-13.8-14.7-31.4-22.4-51-23.6-35-1.9-70.4-2.2-105.4-3.1zm431.9 311.7h-38c-9.5 0-15.9-9.4-12.5-18.3L942.6 32.3c5.1-13.1 3.2-12.4 18.1-12.4h70c9.8 0 16.1 9.3 12.6 18.4L928.8 334.1c-1.8 4.7-4.6 6.7-9.7 6.6l-38.5.1zM954.3 30c-.7 1.5-1.3 2.8-1.8 4.2L840.1 324c-1.9 5-.6 6.9 5.1 6.9l69.5.1c3.7 0 5.1-1.3 6.4-4.5l84.9-219.1 27.4-70.7c1.6-4.1.4-6.5-3.5-6.6l-75.6-.1zm362.4 310.8h-38c-9.9 0-16.1-9.3-12.5-18.6l114.4-295.3c1.9-4.9 4.6-7 10-7l76.5.1c9.4 0 15.8 9.4 12.3 18.3l-86.9 224.2-27.4 70.7c-2.8 7.3-3.4 7.7-11.4 7.7l-37-.1zM1390.3 30l-2.1 4.8-112 288.8c-2.1 5.4-.8 7.2 5.2 7.2l69 .1c3.8 0 5.4-1.1 6.8-4.7l56.9-147 54.7-140.9c2.7-6.9 1.7-8.3-5.5-8.3h-19.5-53.5zM2425 340.8h-38.5c-9.5 0-15.9-9.5-12.4-18.3l114.6-295.8c1.9-5 4.9-6.8 10.1-6.8l76.5.1c9 0 15.5 9.5 12.2 18l-114.7 296.3c-1.8 4.7-4.7 6.7-9.7 6.6l-38.1-.1zm-1.4-10l35 .1c3.5.1 5.3-.9 6.5-4.4L2483 280l93.9-241.8c2.5-6.4.1-8.4-5.9-8.3h-68c-3.8 0-5.4 1.1-6.8 4.6l-112.1 289.3c-2 5.1-.6 7 4.9 7h34.6zM3390.5 175h54.5c10 0 16.4 9.1 12.9 18.3l-22.8 60.1c-1.9 5.1-4.8 7.2-10.3 7.2l-109-.1c-9.5 0-15.9-9.3-12.6-18.1l23-61.2c1.7-4.6 4.5-6.3 9.4-6.3l54.9.1zm-55.1 10l-22.6 59.9c-1.4 3.7.6 5.6 5.4 5.6l102.9.1c3.6 0 4.8-1.4 6-4.4l20.2-53.1c2.6-6.7 1.7-8-5.3-8h-79.5l-27.1-.1zM2280.3 92.6l8.9 1.1c9.9 1.7 14.9 7.5 14.4 19.4-1.2 26-20.3 44.6-46.1 46.3-9.2.6-11.5-2.6-8.1-11.3l17.9-46.5c3.3-8.7 3.6-8.9 13-9zm-20.7 56.6c2.2-.3 3.7-.5 5-.8 15.6-3.9 26-15.4 28.5-31.5 1.7-10.9-.5-13.5-11.3-14.1-3.4-.2-5.3.7-6 4.1-.4 1.9-1.4 3.7-2.1 5.6l-14.1 36.7zm-277-52.3l8.5.5c17.9 2.8 27.1 13.9 27.3 33.5.2 15.7-3.9 30.6-8.5 45.4-7.3 23.9-18.8 45.5-36.8 63.2-15.2 14.9-33.3 23.6-55 23.6-8.2 0-10.2-2.9-7.2-10.5l56-145.1c4.2-10.5 4.2-10.5 15.7-10.6zm-61.1 156c2.5-.2 3.9-.2 5.4-.4 13.9-1.6 25.6-7.9 35.9-17.1 20.2-18 31.7-41.2 39.2-66.7 4.1-14.1 7.7-28.3 6.1-43.2-1.1-10.7-7.7-17.3-18.4-18.4-2.3-.2-4.7.1-7-.2-3.8-.6-5.5 1.2-6.8 4.7l-38.2 99.1-16.2 42.2zM513.8 97c19.4 0 27.4 10.2 23.2 28.8-5.3 23.4-25.2 39.2-48.6 38.7-7.2-.2-9.2-3-6.6-9.9l20.3-52.6c2.4-6.2 7.5-4.7 11.7-5zm-21.2 56.8c20.9.4 37.3-22.6 35.3-39-.8-6.3-11.4-10.9-16.7-7.5-.5.3-.9 1-1.1 1.6l-17.5 44.9z"/></svg>