<svg version="1.1" id="Calque_1" xmlns="http://www.w3.org/2000/svg" xmlns:xlink="http://www.w3.org/1999/xlink" x="0px" y="0px"
	 viewBox="0 0 3549 375" style="enable-background:new 0 0 3549 375;" xml:space="preserve">
<g>
	<path d="M2684.8,174.5c-4.9,13.6-9.6,27.2-14.8,40.7c-15.3,39.9-30.9,79.7-46.3,119.6c-1.7,4.4-4.5,6.1-9.1,6.1
		c-22.5-0.1-45,0-67.5-0.1c-10.3,0-16.6-9.1-12.9-18.7c31.2-80.5,62.4-161,93.6-241.4c7-18,14.1-35.9,20.8-54
		c1.8-4.8,4.4-6.8,9.6-6.8c31.8,0.1,63.7,0.1,95.5,0.1c6.4,0,7.7,1.1,8.4,7.3c5.7,49.3,11.3,98.6,17,147.9c0.3,2.6,0.7,5.2,1.3,9.2
		c1.6-4.7,2.6-8.2,3.9-11.5c19-49.2,38-98.4,56.9-147.6c1.4-3.6,3.8-5.3,7.5-5.3c23.8,0,47.7-0.1,71.5,0.1
		c7.3,0,13.3,10.5,10.4,17.8c-17.2,44.4-34.4,88.7-51.6,133c-21,54.3-42.1,108.5-63,162.9c-2,5.1-4.8,7.2-10.3,7.2
		c-31.2-0.2-62.3-0.1-93.5-0.1c-7.8,0-9.3-1.4-10.1-9c-3.9-37.6-7.9-75.2-11.8-112.8c-1.5-14.1-2.9-28.2-4.3-42.2
		c-0.1-0.8-0.2-1.5-0.4-2.3C2685.3,174.5,2685,174.5,2684.8,174.5z M2712.1,330.6c1.9,0.1,3.3,0.2,4.8,0.2c28.3,0,56.7-0.1,85,0.1
		c3.6,0,5.1-1.2,6.4-4.5c37.2-96.3,74.6-192.6,111.9-288.9c2.3-5.9,1.1-7.5-5.1-7.5c-20,0-40,0.1-60-0.1c-4.1-0.1-5.7,1.4-7.1,5
		c-21.7,57.6-46.3,114-64.8,172.8c-1,3-2.6,4.6-5.7,4.3c-3.3-0.2-4.3-2.5-4.7-5.4c-1-9.3-2.1-18.5-3.2-27.8
		c-4.2-36.6-8.4-73.1-12.6-109.7c-1.5-12.9-3-25.7-4.5-38.8c-31.6,0-62.9,0-94.4,0c-0.7,1.7-1.5,3.5-2.2,5.4
		c-27,69.6-54,139.3-81,208.9c-10.2,26.4-20.5,52.7-30.7,79.1c-1.8,4.6-0.7,7.1,3.2,7.1c22.3,0.1,44.6,0,67.1,0
		c6.8-17.4,13.6-34.5,20.1-51.8c14.1-37.5,28-75.1,41.9-112.7c2.4-6.4,3.8-13.1,6.2-19.5c0.6-1.7,3.3-3.8,4.9-3.7
		c1.7,0.1,3.4,2.4,4.7,4.1c0.7,0.9,0.6,2.6,0.7,3.9c1.5,13.7,3,27.5,4.4,41.2c3.5,33.5,7,66.9,10.5,100.4
		C2709.3,305.3,2710.7,317.8,2712.1,330.6z"/>
	<path d="M3018.2,228.5c-1.4,2-3.4,3.8-4.2,6c-12.7,32.9-25.3,65.8-38,98.7c-2.7,7.1-3.5,7.6-10.9,7.6c-25,0-50,0-75,0
		c-10.3,0-16.6-9.1-12.9-18.7c38.2-98.5,76.4-196.9,114.4-295.4c1.9-5,4.8-6.9,10.1-6.8c25.5,0.2,51,0.1,76.5,0.1
		c9.1,0,15.6,9.5,12.3,18c-7.9,20.3-15.9,40.6-23.8,60.9c-0.6,1.5-1.1,3.1-1,5.1c5.3-5.5,10.6-11,15.8-16.5
		c19.8-21.1,39.5-42.4,59.6-63.3c2.2-2.3,6.3-3.9,9.5-4c29.7-0.3,59.3,0,89-0.3c7.5-0.1,8.8,4.9,11.1,9.9c2.1,4.6,1.3,7.9-2.3,11.5
		c-34.6,34.5-69,69.1-103.5,103.7c-8.2,8.3-16.5,16.5-24.5,25c-1.4,1.5-2.4,4.4-2,6.5c8,48.9,16.2,97.8,24.4,146.8
		c1.8,10.7-4,17.7-15,17.7c-28.3,0-56.7,0-85,0c-7.8,0-9-1-10-8.5c-4.3-33.7-8.5-67.4-12.7-101.1c-0.1-0.6-0.2-1.3-0.3-1.9
		C3019.2,229,3018.7,228.8,3018.2,228.5z M3086.8,330.8c13.5,0,27,0,40.5,0c4.9,0,6.3-1.7,5.6-6.4c-0.7-4.6-1.5-9.2-2.3-13.8
		c-7.5-45-15-90-22.6-134.9c-0.8-4.7,0.4-8.1,3.8-11.5c30.8-30.7,61.3-61.6,92-92.5c11.7-11.8,23.5-23.6,35.2-35.5
		c1-1,1.9-3,1.6-4.1c-0.3-1-2.5-2-3.8-2c-28.3-0.1-56.7-0.1-85,0c-1.7,0-3.8,1-5,2.3c-20.5,21.7-40.9,43.4-61.2,65.2
		c-10.7,11.4-21.1,23.1-32,34.4c-1.3,1.4-4.8,2-6.5,1.3c-1.3-0.6-1.8-3.8-2-5.9c-0.1-1.3,0.8-2.8,1.4-4.2
		c11.2-28.5,22.4-57,33.6-85.4c2.4-6,1.2-7.7-5.5-7.7c-22.5,0-45,0.2-67.5-0.1c-4.6-0.1-6.5,1.4-8.2,5.6
		c-37.1,96-74.3,192-111.5,288c-2.1,5.5-1,7.4,4.9,7.4c23.2,0,46.3-0.1,69.5,0.1c3.6,0,5.2-1.2,6.4-4.5
		c11.5-30.5,23.6-60.8,34.7-91.4c3.2-8.9,8.4-14.2,16.6-17.6c5.9-2.4,8.8-0.9,9.6,5.5c4.3,34.5,8.7,69,12.9,103.6
		c0.4,3.4,1.4,4.5,4.8,4.4C3060.1,330.7,3073.4,330.8,3086.8,330.8z"/>
	<path d="M180.5,254c-7.6,8.9-14.6,16.9-21.5,25c-16.4,19.2-32.8,38.6-49.4,57.6c-1.9,2.2-5.6,4-8.5,4c-29.3,0.3-58.7,0.1-88,0.2
		c-4.2,0-7-1.5-8.5-5.5c-0.4-1.3-1-2.5-1.7-3.6c-2.7-4.4-1.8-7.9,1.6-11.6c14.1-15.3,27.9-30.9,41.8-46.4
		c31.2-34.6,62.5-69.2,93.6-103.9c1.1-1.3,1.8-3.6,1.6-5.3c-6.3-43-12.7-85.9-19.1-128.9c-1.2-8,5.1-15.7,13.2-15.7
		c28.2,0,56.3,0,84.5,0c5.9,0,7.4,1.3,8,7.1c2,21.9,3.9,43.8,5.8,65.7c0.2,1.8,0.3,3.6,0.5,6.2c1.4-1.3,2.3-1.8,3-2.6
		c20.1-24,40.2-48,60.2-72.1c2.5-3,5.1-4.3,9-4.3c29.5,0.1,59,0.1,88.5,0c4.5,0,7,1.8,8.8,5.8c4.4,9.9,4.5,9.9-2.8,17.8
		c-41.4,45.1-82.9,90.3-124.4,135.3c-2.5,2.7-3.3,5.1-2.6,8.8c8.3,45.5,16.4,91,24.6,136.6c1.6,9.1-4.4,16.6-13.5,16.6
		c-28.7,0-57.3,0-86,0c-7.1,0-8.4-1.1-9.2-8.2C186.8,306.9,183.7,281.1,180.5,254z M218.6,30.5c-0.9-0.2-1.2-0.4-1.5-0.4
		c-26.5,0-53-0.1-79.5,0c-4.5,0-5.4,2.5-4.8,6.6c6.4,42.3,12.6,84.6,19,126.9c0.8,5-0.1,8.7-3.6,12.6
		C103.6,225.3,59.3,274.6,15,323.8c-1.2,1.3-1.6,3.2-2.4,4.9c1.8,0.7,3.6,2,5.4,2.1c26.3,0.1,52.7,0,79,0.2c3.5,0,5.8-1.1,8-3.7
		c24.2-28.6,48.6-57,72.9-85.6c2.2-2.6,4.8-5.1,8-3.3c1.9,1.1,3.3,4.4,3.6,6.8c3.3,26.9,6.5,53.9,9.5,80.8c0.4,3.9,1.6,4.9,5.4,4.9
		c26-0.2,52-0.1,78-0.1c6,0,7.1-1.4,6.1-7.1c-8.2-45.5-16.2-91.1-24.6-136.6c-1.1-5.8,0.4-9.7,4.2-13.8
		c41.9-45.4,83.6-90.9,125.4-136.5c1.2-1.3,1.5-3.3,2.2-4.9c-1.7-0.6-3.3-1.8-5-1.8c-22-0.1-44-0.1-66-0.1c-6.2,0-13.2-1.7-18.2,0.7
		c-5.2,2.5-8.6,9-12.6,13.8c-19,22.7-37.9,45.6-57.1,68.2c-1.6,1.9-5.2,3.5-7.5,3c-1.6-0.3-3.4-4.1-3.7-6.5
		c-1.1-9.2-1.7-18.6-2.5-27.9C221.5,64.4,220.1,47.5,218.6,30.5z"/>
	<path d="M1229.9,15.5c33.1-0.3,66.8,8.8,97,29.6c6.3,4.3,6.7,6,2.4,12.5c-14.3,21.7-28.6,43.3-43,65c-4.4,6.7-6.1,6.6-12.9,2.8
		c-11.1-6.2-22.2-13.1-34.1-17.4c-27.7-10-51.8-2.8-71.6,18.5c-25.5,27.4-38.5,60.6-43.5,97.3c-0.7,5-0.4,10.4,0.4,15.4
		c1.7,11.1,8.8,17.3,20.1,17.9c18.9,1.1,37.1-2.6,54.9-8.6c7.4-2.5,14.7-5.2,22.1-7.9c7.9-2.8,17.8,5.3,16.4,13.4
		c-3.7,21.5-7.4,43-11.4,64.4c-0.5,2.5-2.7,5.7-5,6.6c-41.6,17.2-84.6,24.9-129.4,16.9c-43-7.7-69.9-39.5-72.5-83.3
		c-2-34.9,6.5-67.7,18.8-99.8c12.7-33,30.8-62.7,55.9-87.8C1131,34.6,1174.7,15.1,1229.9,15.5z M1320.6,52.9
		c-1.1-0.9-1.6-1.3-2.1-1.7c-1.5-1-3.1-2-4.6-2.9c-23.6-14.1-49.1-21.3-76.7-22.7c-43.7-2.3-83,9.1-117.4,36.3
		c-33.5,26.6-56.3,61-71.7,100.4c-12.1,30.9-20.1,62.7-18.1,96.3c2.3,38.5,25.7,66.6,63.6,73.3c41.7,7.4,82.2,1,121.2-14.9
		c1.4-0.6,2.8-2.8,3.1-4.4c3.4-18.5,6.7-37,9.9-55.5c0.3-1.9,0.2-4.7-1-5.7c-1.1-1-4-0.6-5.7,0c-18.6,6.8-37.4,13.1-57.3,15
		c-6.9,0.6-14,1-20.9,0.2c-18.3-2.1-29.1-14.2-28.6-33.5c0.3-11.7,2.2-23.5,5-34.9c7.9-31.9,22-60.7,46.3-83.5
		c16-15.1,34.8-23,57.3-20.7c15,1.5,28.8,6.6,41.8,14.1c4.7,2.7,9.3,5.5,14,8.3C1292.7,95.1,1306.5,74.2,1320.6,52.9z"/>
	<path d="M2226.6,234.2c-5.8,15-11.2,28.8-16.6,42.5c-7.4,19.1-14.9,38.1-22.1,57.2c-1.9,4.9-4.7,7-10,7c-25.3-0.2-50.7-0.1-76-0.1
		c-9.9,0-16.3-9.3-12.8-18.4c38.2-98.6,76.5-197.2,114.7-295.9c1.9-4.8,4.7-6.6,9.7-6.6c29.2,0.2,58.3-0.3,87.5,0.4
		c23.7,0.5,46.8,4.2,67.2,17.6c18.3,11.9,28.2,29.2,28.6,50.5c1.1,52.6-20.7,93-67.1,119c-5.2,2.9-5.9,5.4-4.5,10.7
		c9.3,35.4,18.2,70.9,27.2,106.4c2.1,8.1-4.3,16.3-12.7,16.3c-28.5,0-57,0-85.5,0c-6.5,0-7.8-1.3-9.1-8.6
		C2239.1,300.1,2233,267.9,2226.6,234.2z M2255,330.5c1.1,0.1,1.8,0.3,2.4,0.3c26.7,0,53.3,0,80,0c4.6,0,6.1-2,4.9-6.6
		c-9.3-36.4-18.6-72.9-27.8-109.3c-2.3-9.2-2.3-9.1,6-13.5c45.6-24,67.7-61.9,66.5-113.3c-0.4-16.3-7.7-29.8-21-39.7
		c-15.4-11.5-33.2-16.5-51.9-17.2c-32.6-1.1-65.3-0.9-97.9-1.1c-1.4,0-3.5,1.7-4.1,3c-4.2,10.1-8.1,20.4-12,30.7
		c-33.6,86.5-67.1,173-100.7,259.6c-2.2,5.7-1,7.4,5.3,7.4c23,0,46-0.1,69,0.1c3.6,0,5.2-1,6.5-4.4c12.6-32.8,25.3-65.4,38-98.1
		c2.2-5.8,4.2-6.8,10.7-6.4c5,0.3,6.1,3.7,6.9,7.7c4.4,23.5,8.9,47.1,13.3,70.6C2251,310.4,2253,320.5,2255,330.5z"/>
	<path d="M1550.1,107.8c-15,0-29.5,0-44,0c-11.4,0-17.4-8.8-13.3-19.3c8.1-20.8,16.2-41.5,24.2-62.3c1.7-4.4,4.2-6.2,8.9-6.2
		c69.3,0.1,138.7,0,208,0.1c8.7,0,15.2,9.6,12,17.9c-8.5,21.7-17.2,43.3-25.7,65c-1.7,4.3-4.8,5-8.7,5c-17.5,0-35,0.2-52.5-0.2
		c-4.8-0.1-6.5,1.6-8.1,5.7c-27.9,73-56,146-84,219c-3.1,8.1-3.6,8.4-12.4,8.4c-24.7,0-49.3,0-74,0c-10.2,0-16.4-9.1-12.7-18.7
		c26.5-69.1,53.1-138.2,79.6-207.3C1548.3,112.7,1549.1,110.5,1550.1,107.8z M1630.5,30c-33.2,0-66.3,0-99.5-0.1
		c-3.4,0-5.2,0.7-6.5,4.2c-7.2,19-14.7,37.8-22,56.7c-2,5.1-0.7,7,4.9,7c15.3,0,30.7,0,46,0c8.7,0,10.3,2.4,7.1,10.7
		c-27.4,71.4-54.9,142.8-82.3,214.2c-2.5,6.6-1.5,8.1,5.4,8.1c22.7,0,45.3-0.1,68,0.1c4.2,0,6-1.3,7.5-5.2
		c28.3-73.9,56.7-147.8,85-221.7c1.8-4.7,4.2-6.4,9.2-6.3c18,0.2,36,0,54,0.2c3.3,0,4.9-0.9,6.1-4.1c7.2-18.6,14.6-37.1,22-55.7
		c2.6-6.5,1.6-8.1-5.3-8.1C1696.8,30,1663.6,30,1630.5,30z"/>
	<path d="M726.9,254c26.2,0,51.7,0,77.2,0c10.7,0,16.8,8.8,13,18.7c-7.9,20.5-16,40.9-23.8,61.4c-1.8,4.8-4.6,6.8-9.6,6.8
		c-58.2-0.1-116.3,0-174.5-0.1c-9.4,0-15.6-9.6-12.1-18.5c37.5-96.6,74.9-193.2,112.4-289.8c5.1-13.1,3.1-12.5,18.1-12.5
		c23.5,0.1,47,0,70.5,0c9.1,0,15.7,9.4,12.4,17.9c-27.3,70.6-54.6,141.1-81.9,211.7C728.1,250.9,727.7,252.1,726.9,254z M721.3,30
		c-0.6,1.3-1.1,2.3-1.5,3.4c-37.6,96.9-75.2,193.8-112.8,290.7c-1.9,4.9-0.5,6.7,5.3,6.7c55.7,0,111.3,0,167,0.1
		c3.7,0,5.2-1.3,6.4-4.5c7-18.3,14.2-36.6,21.3-54.9c2.3-5.9,1.2-7.5-5-7.5c-26.2,0-52.3,0-78.5,0c-8,0-10.1-2.9-7.2-10.2
		c12.4-32.1,24.9-64.2,37.3-96.3c15.5-40.2,31.1-80.4,46.6-120.5c1.8-4.6,0.7-6.9-3.4-7C771.7,30,746.5,30,721.3,30z"/>
	<path d="M1861.4,340.8c-20.3,0-38.8,0-57.3,0c-10.3,0-16.6-9.1-12.9-18.7c38.2-98.5,76.4-196.9,114.5-295.4c1.9-5,4.9-6.8,10.1-6.8
		c30.7,0.2,61.3-0.2,92,0.4c22.9,0.4,45,5,64.8,17.4c24,15.1,36.5,37.2,39.4,65c3.2,30-4,58.6-13,86.8c-12.2,38-31.9,71.7-61.5,98.9
		c-28.2,26-61.5,41.5-99,48.7C1912.3,342,1885.9,340.6,1861.4,340.8z M1915.2,30c-0.8,2.1-1.6,3.9-2.3,5.7
		c-20.6,53.2-41.3,106.4-61.9,159.6c-16.5,42.6-33.1,85.3-49.6,127.9c-2,5.2-1,7.6,3.5,7.6c34.3-0.1,68.7,0.4,103-0.5
		c36.8-0.9,70.8-11.7,101.4-32.3c34.5-23.3,58.1-55.4,73.6-93.6c13.1-32.5,22.3-66,19-101.6c-1.9-20.2-10.2-37.4-26.1-50.5
		c-16.3-13.5-35.5-19.9-56.1-21.1c-20.8-1.2-41.6-0.9-62.4-1.2C1943.3,29.9,1929.3,30,1915.2,30z"/>
	<path d="M493.5,19.1c20.3,1,40.6,1.4,60.8,3c13.5,1.1,26.4,5.1,38.4,11.6c25.7,14.1,37.9,36.4,38.3,65
		c0.9,59-34.3,109.2-90.9,130.4c-24,9-48.9,12.9-74.4,12.3c-5.6-0.1-8.4,1.2-10.4,6.9c-10.4,28.4-21.5,56.6-32.3,84.8
		c-2.8,7.2-3.4,7.7-11.3,7.7c-24.8,0-49.6,0-74.5,0c-10.6,0-16.8-9.1-12.9-19c38.1-98.3,76.2-196.5,114.2-294.9c2-5.2,5-7.1,10.4-7
		c14.8,0.3,29.7,0.1,44.5,0.1C493.5,19.7,493.5,19.4,493.5,19.1z M448.7,29.1c-1.1,2.4-1.7,3.8-2.2,5.2
		C409,130.8,371.6,227.4,334.1,324c-1.9,4.8-0.5,6.8,4.6,6.8c23.5,0,47-0.1,70.5,0.1c3.2,0,4.6-1.1,5.7-4
		c10.4-27.5,20.8-55.1,31.5-82.5c5.2-13.4,1.8-13.1,18.6-12.9c26.4,0.3,52.1-3.3,76.6-13.6c51.5-21.6,82.4-69.6,79.2-123.6
		c-0.9-14.5-5.6-27.7-15.7-38.5c-13.8-14.7-31.4-22.4-51-23.6C519.1,30.3,483.7,30,448.7,29.1z"/>
	<path d="M880.6,340.8c-12.7,0-25.3,0-38,0c-9.5,0-15.9-9.4-12.5-18.3c37.5-96.7,75-193.5,112.5-290.2c5.1-13.1,3.2-12.4,18.1-12.4
		c23.3,0,46.6,0,70,0c9.8,0,16.1,9.3,12.6,18.4c-38.2,98.6-76.4,197.2-114.5,295.8c-1.8,4.7-4.6,6.7-9.7,6.6
		C906.2,340.7,893.4,340.8,880.6,340.8z M954.3,30c-0.7,1.5-1.3,2.8-1.8,4.2C915,130.8,877.6,227.4,840.1,324
		c-1.9,5-0.6,6.9,5.1,6.9c23.2,0,46.3-0.1,69.5,0.1c3.7,0,5.1-1.3,6.4-4.5c28.2-73.1,56.6-146.1,84.9-219.1
		c9.1-23.6,18.3-47.1,27.4-70.7c1.6-4.1,0.4-6.5-3.5-6.6C1004.8,30,979.6,30,954.3,30z"/>
	<path d="M1316.7,340.8c-12.7,0-25.3,0-38,0c-9.9,0-16.1-9.3-12.5-18.6c38.2-98.4,76.4-196.9,114.4-295.3c1.9-4.9,4.6-7,10-7
		c25.5,0.2,51,0.1,76.5,0.1c9.4,0,15.8,9.4,12.3,18.3c-28.9,74.7-57.9,149.4-86.9,224.2c-9.1,23.6-18.3,47.1-27.4,70.7
		c-2.8,7.3-3.4,7.7-11.4,7.7C1341.4,340.8,1329,340.8,1316.7,340.8z M1390.3,30c-0.8,1.8-1.5,3.3-2.1,4.8
		c-37.3,96.3-74.7,192.5-112,288.8c-2.1,5.4-0.8,7.2,5.2,7.2c23,0,46-0.1,69,0.1c3.8,0,5.4-1.1,6.8-4.7c18.9-49,37.9-98,56.9-147
		c18.2-47,36.5-93.9,54.7-140.9c2.7-6.9,1.7-8.3-5.5-8.3c-6.5,0-13,0-19.5,0C1425.9,30,1408.1,30,1390.3,30z"/>
	<path d="M2425,340.8c-12.8,0-25.7,0-38.5,0c-9.5,0-15.9-9.5-12.4-18.3c38.2-98.6,76.5-197.2,114.6-295.8c1.9-5,4.9-6.8,10.1-6.8
		c25.5,0.2,51,0.1,76.5,0.1c9,0,15.5,9.5,12.2,18c-38.2,98.8-76.5,197.5-114.7,296.3c-1.8,4.7-4.7,6.7-9.7,6.6
		C2450.3,340.7,2437.7,340.8,2425,340.8z M2423.6,330.8c11.7,0,23.3-0.1,35,0.1c3.5,0.1,5.3-0.9,6.5-4.4c5.8-15.6,11.9-31,17.9-46.5
		c31.3-80.6,62.5-161.2,93.9-241.8c2.5-6.4,0.1-8.4-5.9-8.3c-22.7,0.3-45.3,0.2-68,0c-3.8,0-5.4,1.1-6.8,4.6
		c-37.3,96.5-74.7,192.9-112.1,289.3c-2,5.1-0.6,7,4.9,7C2400.6,330.9,2412.1,330.8,2423.6,330.8z"/>
	<path d="M3390.5,175c18.2,0,36.3,0,54.5,0c10,0,16.4,9.1,12.9,18.3c-7.6,20-15.4,40-22.8,60.1c-1.9,5.1-4.8,7.2-10.3,7.2
		c-36.3-0.2-72.6-0.1-109-0.1c-9.5,0-15.9-9.3-12.6-18.1c7.7-20.4,15.5-40.7,23-61.2c1.7-4.6,4.5-6.3,9.4-6.3
		C3353.8,175.1,3372.2,175,3390.5,175z M3335.4,185c-7.6,20.1-15.1,39.9-22.6,59.9c-1.4,3.7,0.6,5.6,5.4,5.6
		c34.3,0,68.6,0,102.9,0.1c3.6,0,4.8-1.4,6-4.4c6.6-17.8,13.4-35.4,20.2-53.1c2.6-6.7,1.7-8-5.3-8c-26.5,0-53,0-79.5,0
		C3353.6,185,3344.6,185,3335.4,185z"/>
	<path d="M2280.3,92.6c3,0.4,5.9,0.6,8.9,1.1c9.9,1.7,14.9,7.5,14.4,19.4c-1.2,26-20.3,44.6-46.1,46.3c-9.2,0.6-11.5-2.6-8.1-11.3
		c6-15.5,12-31,17.9-46.5C2270.6,92.9,2270.9,92.7,2280.3,92.6z M2259.6,149.2c2.2-0.3,3.7-0.5,5-0.8c15.6-3.9,26-15.4,28.5-31.5
		c1.7-10.9-0.5-13.5-11.3-14.1c-3.4-0.2-5.3,0.7-6,4.1c-0.4,1.9-1.4,3.7-2.1,5.6C2269.1,124.5,2264.5,136.5,2259.6,149.2z"/>
	<path d="M1982.6,96.9c2.8,0.1,5.7,0.1,8.5,0.5c17.9,2.8,27.1,13.9,27.3,33.5c0.2,15.7-3.9,30.6-8.5,45.4
		c-7.3,23.9-18.8,45.5-36.8,63.2c-15.2,14.9-33.3,23.6-55,23.6c-8.2,0-10.2-2.9-7.2-10.5c18.7-48.4,37.4-96.7,56-145.1
		C1971.1,97,1971.1,97,1982.6,96.9z M1921.5,252.9c2.5-0.2,3.9-0.2,5.4-0.4c13.9-1.6,25.6-7.9,35.9-17.1
		c20.2-18,31.7-41.2,39.2-66.7c4.1-14.1,7.7-28.3,6.1-43.2c-1.1-10.7-7.7-17.3-18.4-18.4c-2.3-0.2-4.7,0.1-7-0.2
		c-3.8-0.6-5.5,1.2-6.8,4.7c-12.6,33.1-25.4,66.1-38.2,99.1C1932.5,224.5,1927.1,238.3,1921.5,252.9z"/>
	<path d="M513.8,97c19.4,0,27.4,10.2,23.2,28.8c-5.3,23.4-25.2,39.2-48.6,38.7c-7.2-0.2-9.2-3-6.6-9.9c6.7-17.5,13.7-35,20.3-52.6
		C504.5,95.8,509.6,97.3,513.8,97z M492.6,153.8c20.9,0.4,37.3-22.6,35.3-39c-0.8-6.3-11.4-10.9-16.7-7.5c-0.5,0.3-0.9,1-1.1,1.6
		C504.3,123.8,498.5,138.6,492.6,153.8z"/>
</g>
</svg>
