<svg x="0px" y="0px" viewBox="0 0 449.9 372.6">
<g>
	<path d="M405.9,104.1c-10.5,0-20.1,0.2-29.8,0c-13-0.3-20.9-12.4-16-24.3c2.7-6.6,8.1-10.4,15.1-10.5c19.2-0.3,38.3-0.4,57.5,0
		c13.4,0.3,20.6,12.5,15.3,25.5c-6,14.8-12.3,29.5-18.6,44.3c-15.7,37.3-31.5,74.6-47.1,112c-4,9.7-10.6,14.2-21.1,14.1
		c-66.3-0.1-132.7-0.1-199-0.1c-11.9,0-17.3-4-20.8-15.4C120.3,180,99,110.4,77.8,40.7c-1.4-4.6-3.4-5.8-7.9-5.7
		c-17.5,0.3-35,0.2-52.5,0C9.2,34.9,3.2,30.1,0.7,22.3c-2.1-6.8,0.4-14.7,7-18.8c3.2-2,7.5-3.2,11.2-3.3c23-0.3,46-0.2,69-0.1
		c9.8,0.1,15.5,4.8,18.6,15c21.4,69.8,42.7,139.6,63.9,209.5c1.3,4.2,3.1,5.7,7.5,5.6c56.7-0.2,113.3-0.1,170,0
		c3.6,0,5.7-0.8,7.2-4.4c16.3-39.1,32.7-78.1,49.1-117.1C404.9,107.5,405.2,106.2,405.9,104.1z"/>
	<path d="M373.2,372.6c-17,0.1-30.9-13.7-31-30.7c0-17.1,13.7-30.9,30.8-30.8c16.9,0,30.5,13.6,30.7,30.5
		C404,358.5,390.2,372.5,373.2,372.6z"/>
	<path d="M113.6,341.8c0-17,13.9-30.8,30.9-30.8c16.9,0.1,30.5,13.7,30.6,30.6c0.1,17.1-13.6,31-30.7,31
		C127.5,372.7,113.6,358.9,113.6,341.8z"/>
</g>
</svg>
