
<svg x="0px" y="0px" viewBox="0 0 163.9 198.2">
<g>
	<path d="M12.8,69.2c46.2,0,91.9,0,138.3,0c-1.7,8.9-3.4,17.4-5.1,26c-1.9,10-3.9,19.9-5.9,29.9c-1.2,5.8-3.8,8.1-9.6,8.1
		c-32.5,0.1-64.9,0-97.4,0c-4.3,0-7.9-1.7-8.8-5.9C20.3,108.2,16.7,88.9,12.8,69.2z M37.1,100.9c0,4.7-0.2,9.3,0.1,14
		c0.1,1.4,1.6,2.8,2.5,4.2c1-1.3,2.8-2.5,2.9-3.8c0.2-9.5,0.2-19,0-28.5c0-1.3-1.8-2.6-2.8-3.9c-0.9,1.4-2.5,2.7-2.6,4.1
		C36.9,91.6,37.1,96.3,37.1,100.9z M126.8,100.9c0-4.7,0.2-9.3-0.1-14c-0.1-1.4-1.7-2.7-2.6-4c-1,1.3-2.7,2.6-2.8,3.9
		c-0.2,9.3-0.3,18.7,0,28c0,1.5,1.9,2.9,2.9,4.3c0.9-1.4,2.4-2.8,2.5-4.2C127.1,110.3,126.8,105.6,126.8,100.9z M54,101
		c0,4.5-0.2,9,0.1,13.5c0.1,1.6,1.6,3.1,2.5,4.6c1-1.5,2.7-2.9,2.8-4.4c0.3-9.1,0.3-18.3,0-27.5c0-1.5-1.8-2.9-2.8-4.3
		c-0.9,1.6-2.4,3.1-2.5,4.7C53.7,92,54,96.5,54,101z M110,101.2c0-4.7,0.2-9.3-0.1-14c-0.1-1.5-1.8-2.9-2.8-4.3
		c-0.9,1.4-2.5,2.7-2.5,4.1c-0.2,9.3-0.2,18.6,0,28c0,1.4,1.7,2.7,2.6,4.1c0.9-1.5,2.6-2.9,2.7-4.4C110.2,110.2,110,105.7,110,101.2
		z M76.3,101C76.3,101,76.2,101,76.3,101c0-4.8,0.2-9.7-0.1-14.5c-0.1-1.3-1.6-2.5-2.4-3.7c-1,1.3-2.7,2.5-2.7,3.8
		c-0.2,9.5-0.2,19,0,28.4c0,1.3,1.7,2.6,2.6,4c0.9-1.4,2.4-2.7,2.5-4.1C76.5,110.4,76.3,105.7,76.3,101z M93.1,101.2
		c0-4.7,0.2-9.3-0.1-14c-0.1-1.5-1.8-2.9-2.7-4.3c-0.8,1.4-2.4,2.8-2.4,4.2c-0.2,9.1-0.2,18.3,0,27.4c0,1.6,1.6,3.1,2.5,4.6
		c0.9-1.5,2.5-2.9,2.6-4.5C93.3,110.2,93.1,105.7,93.1,101.2z"/>
	<path d="M53.1,46.9c19.6,0,38.2,0,57.6,0c-0.6-1.9-1-3.4-1.5-4.8c-3.9-11.1-7.8-22.3-11.9-33.4c-1.6-4.4-0.1-6.3,4.1-7.7
		c4-1.3,6.6-1.4,8.1,3.2c4.4,12.9,9.1,25.7,13.5,38.7c1.1,3.2,2.6,4.4,6,4.3c9.7-0.3,19.3,0,29-0.2c4.4-0.1,5.9,1.6,5.8,5.9
		c-0.1,12.5,0.8,11.5-11.2,11.4c-48.3,0-96.7,0-145,0c-7.5,0-7.6-0.1-7.6-7.5c0-1.3,0.1-2.7,0-4c-0.4-4.3,1.5-6,5.8-5.9
		c9.7,0.2,19.3-0.1,29,0.2c3.5,0.1,4.9-1.2,6-4.3C45,30.6,49.5,18.4,53.8,6.1c2.4-6.7,3-7.1,8.7-5c5.5,2,5.8,2.6,3.5,9
		C61.8,22.2,57.6,34.2,53.1,46.9z"/>
	<path d="M42.2,198.2c-1.2-8.8-0.5-9.8,7.6-9.8c21.5,0,43,0,64.4,0c8,0,8.9,1,7.5,9.8C95.2,198.2,68.7,198.2,42.2,198.2z"/>
</g>
</svg>
