
<svg version="1.1" id="Calque_1" xmlns="http://www.w3.org/2000/svg" xmlns:xlink="http://www.w3.org/1999/xlink" x="0px" y="0px"
	 viewBox="0 0 500 500" style="enable-background:new 0 0 500 500;" xml:space="preserve">
<g>
	<path d="M487,0c-11.9,14.8-23.8,29.5-35.5,44.4c-19.1,24.3-37.8,48.9-56.9,73.1c-24.9,31.6-50,63-75.1,94.4
		c-8,10.1-7.8,9.7-0.4,20.4c10.9,15.9,21.2,32.2,31.8,48.3c14.1,21.4,28.3,42.7,42.3,64.1c16.2,24.7,32.4,49.6,48.6,74.3
		c17.7,27,35.5,53.9,53.2,80.9c-19.3,0-38.7,0-58,0c-11.2-16.9-22.3-33.8-33.5-50.7c-15.9-24-31.8-47.9-47.6-71.9
		c-22.7-34.4-45.3-68.9-67.9-103.4c-2.6-3.9-5.3-7.8-8.1-12c-9.1,11.7-17.8,22.8-26.4,33.9c1.8,2.9,3.3,5.6,5,8.2
		c15.9,24.5,31.9,48.9,47.7,73.5c18.7,29.1,37.1,58.2,55.7,87.4c7.4,11.6,14.7,23.3,22.1,35c-14,0-28,0-42,0c-0.7-1.4-1.3-3-2.2-4.3
		c-16.6-25.5-33.2-50.9-49.8-76.4c-14.4-22.1-28.9-44.2-43.4-66.3c-5.7-8.7-11.4-17.4-17.3-26.2c-0.7,0.6-1.2,0.9-1.4,1.3
		c-8,10.3-16,20.7-24.1,31c-15.5,19.7-31.2,39.2-46.8,58.9c-21.7,27.4-43.4,54.7-65,82.1c-9.3,0-18.7,0-28,0
		c6.2-8.2,12.2-16.5,18.6-24.6c24-30.4,48.2-60.7,72.2-91.2c21.8-27.7,43.5-55.5,65.3-83.2c24.1-30.6,48.4-61,72.6-91.5
		c20.3-25.7,40.4-51.6,60.7-77.3c18.7-23.8,37.7-47.4,56.4-71.1C426,40.8,442,20.4,458,0C467.7,0,477.3,0,487,0z"/>
	<path d="M18,500c54.5-71.9,111.8-141.8,167.4-212.9c2.7-3.4,2.8-5.5,0.3-9.3C137.9,204.7,90.5,131.2,42.7,57.9
		C31,39.8,19.3,21.7,7.6,3.5C6.9,2.4,6.5,1.2,6,0c14,0,28,0,42,0c54.7,85.1,110.2,169.6,166,254.1c9.7-12.3,18.9-24.2,28-35.7
		C195.5,144.5,145.8,73.9,100,0c18.3,0,36.7,0,55,0c39.1,59.8,78.1,119.7,117.6,180c46.6-60.6,95-119.4,141.5-180c8.7,0,17.3,0,26,0
		c-0.4,0.9-0.7,1.9-1.3,2.6c-11,14-22,27.9-33,41.9c-40,50.8-80.5,101.2-120,152.4C204.9,297.1,126.5,399.4,46,500
		C36.7,500,27.3,500,18,500z"/>
</g>
</svg>
