<?xml version="1.0" encoding="utf-8"?>
<!-- Generator: Adobe Illustrator 24.1.2, SVG Export Plug-In . SVG Version: 6.00 Build 0)  -->
<svg version="1.1" id="Calque_1" xmlns="http://www.w3.org/2000/svg" xmlns:xlink="http://www.w3.org/1999/xlink" x="0px" y="0px"
	 viewBox="0 0 294.9 537.9" style="enable-background:new 0 0 294.9 537.9;" xml:space="preserve">
<g>
	<path d="M34,3.2c13.7,8.6,16.7,20.8,8.2,34.4c-1.2,1.9-0.9,2.8,0.4,4.2C57.4,58.8,75.3,72,95,82.7c3.1,1.7,3.7-0.8,4.8-2.5
		c10.3-14.8,32-13.5,40.1,2.4c4.6,9,2.9,19.5-4.3,26.7c-7,7.1-17.9,9.2-26.6,4.4c-3.3-1.8-4.6-1.3-6.5,1.8
		C85.2,144,75.9,175.2,71.3,208c-0.5,3.5-0.7,7-1.3,10.4c-0.4,2.6,0.2,3.7,3.1,3.4c37-3.8,72.2-13.4,104.3-32.8
		c2.3-1.4,2.8-2.4,1.4-5c-6.1-11.8-1.8-25.1,9.7-31.2c10.8-5.8,24.1-2,30.5,8.5c6.6,10.9,3.6,24.4-7.4,31.5c-3,1.9-3.1,3.2-1.5,6.2
		c10.3,18.8,22,36.4,38.7,50.3c3.3,2.8,5.6,3.5,9.7,0.6c12.5-9.1,29.8-2.9,34.6,12c1.8,4.8,1.9,9.6,0,14.3
		c-5.6,15.4-22.7,20.8-35.7,11c-2.6-2-4.2-2.2-6.8-0.1c-18.2,14.3-30.5,33.1-41.4,53.1c-1.6,2.9,0.8,3.3,2.3,4.4
		c7.8,5.5,12,13,10.6,22.6c-1.4,9.8-7.1,16.4-16.6,19.2c-9.4,2.8-17.5,0-23.8-7.3c-6.2-7.2-7.6-15.7-3.4-24.2c2-4.1,1-5.5-2.4-7.5
		c-28.1-16.6-58.6-25.8-90.7-30.3c-4-0.6-7.9-0.8-11.9-1.4c-2.7-0.4-3.5,0.4-3.2,3.2c3.5,30.8,10.7,60.6,24.5,88.5
		c2.6,5.4,5.8,10.5,8.6,15.7c1.2,2.2,2.1,3,4.9,1.5c11.8-6.2,25.3-2.2,31.5,8.9c5.9,10.7,2.5,24.1-7.8,30.7c-10.9,6.9-24.4,4.1-32-7
		c-1.5-2.1-2.4-3.4-5.4-1.8c-19.1,10.5-36.4,23.2-51,39.5c-2,2.2-2.2,3.7-0.5,6.3c8.5,13.3,2.6,29.3-12.7,34.5
		c-3.9,1.9-8,0.6-11.9,1c-9.2-0.9-15.5-7.1-18.1-18c0-4,0-8,0-12c8.6-18.2,21.1-33.4,35.9-46.8c10.7-9.6,22.1-18.2,34.6-25.3
		c3.1-1.7,3.2-3.7,1.6-6.5c-18.7-34-27.9-70.7-31.7-109.1c-0.9-9-0.7-18-0.8-26.9c-0.1-6.3,1.3-7.6,7.7-7.5
		c44.3,0.6,87,8.5,127,28.6c2.8,1.4,5.7,2.7,8.5,4.2c3,1.6,5,0.8,6.6-2c9.3-15.9,20.1-30.6,33.6-43.2c2.5-2.3,2.5-4.4,0-6.7
		c-13.4-12.5-24.1-27.1-33.2-42.9c-2.4-4.1-5-3.4-8.3-1.7c-19.2,10.2-39.4,18-60.6,23c-17.8,4.2-35.8,7.4-54.2,8.4
		c-6.6,0.4-13.3,0.9-19.9,0.8c-5.8-0.1-7.2-1.4-7.3-7c-0.9-40.2,7.1-78.8,22.2-115.9c2.8-7,6-13.8,9.8-20.2c2.1-3.6,1.5-5.6-2-7.6
		C60.1,96.8,51.1,90.2,42.5,83c-16-13.3-29.3-29-40.3-46.7c-1.5-2.4-1.6-5-1.6-7.7c0-3,0-5.9,0-8.9C1.4,11,6.1,5.1,14.2,1.8
		C20.9,0.2,27.6-0.5,34,3.2z"/>
</g>
</svg>
