<svg version="1.1" id="Calque_1" xmlns="http://www.w3.org/2000/svg" xmlns:xlink="http://www.w3.org/1999/xlink" x="0px" y="0px"
	 viewBox="0 0 732 230" style="enable-background:new 0 0 732 230;" xml:space="preserve">
<g>
	<path d="M264,87.9c9.3,0,18.4,0,27.8,0c3.7-18,7.6-35.9,11.1-53.8c0.8-4.3,2.6-5.7,6.9-5.7c12.7,0.2,25.3,0.1,38,0.1
		c6.9,0,9.5,3.3,8.1,10.2c-11,51.9-22,103.8-32.9,155.7c-0.9,4.4-2.7,6-7.3,5.9c-12.7-0.3-25.3-0.1-38-0.1c-6.4,0-9-3.2-7.7-9.5
		c3.5-16.9,7.1-33.9,10.6-50.8c0.3-1.5,0.5-2.9,0.9-5.3c-8.9,0-17.5-0.1-26,0.2c-0.8,0-1.9,2.4-2.3,3.9c-4.1,18.9-8.2,37.7-12,56.6
		c-0.7,3.5-2,5-5.8,5c-13.2-0.2-26.3-0.1-39.5-0.1c-6,0-8.8-3.4-7.6-9.3c11.1-52.4,22.2-104.8,33.2-157.2c0.8-3.8,2.4-5.3,6.3-5.2
		c13,0.2,26,0,39,0.1c6,0,8.7,3.4,7.6,9.2C270.9,54.3,267.5,70.9,264,87.9z M307.3,32.5c-3.8,18.6-7.7,36.7-11.2,54.8
		c-0.7,3.6-2.1,5.1-5.9,5c-8.2-0.3-16.3-0.1-24.5-0.1c-6.2,0-6.5-0.5-5.3-6.6c3.3-15.8,6.4-31.6,9.8-47.4c1-4.5-0.7-5.7-4.8-5.7
		c-11.8,0.1-23.7,0.1-35.5,0c-3.2,0-4.5,0.9-5.2,4.3C217,74.3,209,111.9,201,149.5c-2.9,13.5-5.7,27-8.6,40.5
		c-1.1,5.4-0.5,6.1,5,6.2c4,0,8,0,12,0c9.1,0,18.2,0,27.4,0c4.5-20.7,8.9-40.9,13-61.1c0.7-3.5,2.3-4.7,5.7-4.6
		c8.3,0.1,16.7,0,25,0.1c5.2,0,5.8,0.7,4.7,5.9c-3.6,17.4-7.3,34.8-11,52.2c-1.5,7-1.1,7.5,5.9,7.5c11.3,0,22.7-0.1,34,0.1
		c3.2,0,4.5-0.8,5.2-4.2c6.8-32.7,13.8-65.4,20.7-98.1c3.9-18.4,7.8-36.8,11.7-55.1c0.7-3.1,1.3-6.3-3.5-6.3
		C334.8,32.5,321.3,32.5,307.3,32.5z"/>
	<path d="M139.2,27.1c16.6-1.4,32.4,3.2,47.5,10.8c3.9,2,4.9,3.9,2.9,8.1c-4.8,9.7-9,19.7-13.5,29.5c-2.1,4.7-5.8,5.7-10.5,4
		c-8.3-3-16.6-5.7-25.1-8c-3.8-1-8.4-0.9-10.7,3.2c-2.5,4.4-0.7,8.5,2.6,11.7c4.3,4.1,9,7.9,13.6,11.7c12.1,9.7,22.2,20.7,25,36.7
		c5.8,33.5-12.6,60-46,66c-8.6,1.5-17.5,3.2-26,2.3c-12.3-1.2-24.6-4.1-35.6-10.4c-3.1-1.7-4.5-3.7-4.5-7.5
		c0.3-11.5,0.1-23,0.1-34.5c0-5.9,4.6-8.4,9.8-5.6c11.3,6,22.9,10.9,35.8,11.6c4.8,0.3,10.2,0.7,12.7-4.7c2.7-5.7-1.5-9.4-5.2-12.8
		c-7-6.4-14.5-12.3-21.1-19.1c-15.7-16.4-19.8-36.1-12.4-57.3C86,41.7,102.7,31,124.2,27.2C128.9,26.4,133.8,27.1,139.2,27.1z
		 M186.8,42.4c-24.1-12.9-49.4-16.2-74.6-7.6C79.3,46,68.6,85.3,89.9,112.7c5.6,7.3,13.3,13,20,19.4c3.2,3.1,6.9,5.9,9.5,9.5
		c5.6,7.5,2.2,16.5-6.9,18.4c-3.8,0.8-8.2,1.3-11.8,0.3c-11-3.2-21.7-7-32.4-11c-4.5-1.7-5.2-1.7-5.3,3.1c0,9.7,0.4,19.3-0.2,29
		c-0.3,5.5,1.9,8.1,6.5,10c20.3,8.6,41.1,9.7,62,3.7c29.5-8.5,44.1-37.8,33.8-66.9c-4.1-11.6-12.5-19.8-21.9-27.3
		c-5.5-4.5-11.3-9-15.8-14.4c-6.6-8.1-2.3-17.7,7.9-19.1c1.9-0.3,4.1-0.4,5.9,0.1c8.3,2.4,16.5,5,24.7,7.7c2.5,0.8,4.7,2.1,6.3-1.2
		C177.1,63.6,181.9,53.2,186.8,42.4z"/>
	<path d="M590.8,147.8c-3.2,15.3-6.6,31.1-9.6,46.9c-0.8,4.4-2.6,5.6-6.9,5.5c-12.8-0.3-25.6-0.1-38.5-0.1c-6.1,0-8.9-3.3-7.7-9.2
		c11.1-52.4,22.2-104.8,33.2-157.2c0.8-4,2.6-5.5,6.7-5.4c16.8,0.4,33.7-0.1,50.4,0.7c17.9,0.9,34,6.7,44.9,22.2
		c7,10,10.2,21.7,9.5,33.5c-1.9,31.1-20.8,52.4-51.6,59C611.6,145.9,601.5,146.5,590.8,147.8z M576.8,196.1
		c3.4-16.3,6.9-32.2,9.9-48.2c0.8-4.3,2.7-5.2,6.7-5.3c7.6-0.2,15.3-0.6,22.8-1.8c28.3-4.5,46.9-22,51.2-47.9
		c5.4-31.7-10.8-55.2-42.8-58.9c-18.6-2.2-37.6-1.2-56.4-1.4c-1.1,0-3,2.3-3.3,3.8c-7.1,32.8-14,65.7-21,98.6
		c-3.9,18.4-7.8,36.8-11.7,55.2c-0.5,2.6-1.5,5.9,2.8,5.9C548.9,196.2,562.7,196.1,576.8,196.1z"/>
	<path d="M453.6,27.3c13.6-1.3,25.5,0.5,36.5,6.6c17.7,9.8,27.1,25.7,29.4,45.1c4.1,34.7-3,67-25.5,94.7
		c-12.1,14.9-27.9,24.2-46.9,27.3c-8.3,1.4-16.9,3.1-25,2.2c-21.8-2.6-40.9-10.7-51.8-31.6c-5.4-10.4-7.9-21.6-8-33.2
		c-0.3-28.8,6.2-55.8,24.1-79.2c13.3-17.4,30.8-28.2,52.5-31.7C444.1,26.6,449.5,27.3,453.6,27.3z M365.9,131.1
		c0.4,5.5,0.4,11,1.2,16.4c2.7,19.2,11.1,34.7,28.9,44.1c9.3,4.9,19.5,6.6,29.9,7c26.2,0.9,48.7-7.3,65.4-27.9
		c21.7-26.7,28.4-58,24.2-91.5c-2.7-21.3-13.9-37.6-35.1-45.3c-13.9-5-28.5-4.2-42.5-2.1c-22.6,3.3-39.8,16.2-52.3,35.1
		C372.7,86.3,367.2,108,365.9,131.1z"/>
	<path d="M608.5,70.2c9.9,0.1,15.5,6.7,14.1,16c-1.8,11.8-10.1,19.1-21.2,18.9c-3.9-0.1-5-1.7-4.2-5.3c1.8-8.3,3.7-16.5,5.3-24.8
		C603.2,71.2,605,69.4,608.5,70.2z M601.1,100.2c0.3,0.6,0.6,1.1,0.9,1.7c3.7-1.7,8-2.8,11.1-5.2c5.5-4.2,7.6-13.6,3.9-18.3
		c-1.7-2.2-5.4-3.2-8.3-3.9c-0.6-0.2-2.6,3-3.1,4.9C603.9,86.3,602.6,93.3,601.1,100.2z"/>
	<path d="M471.4,95.5c-1.1,16.8-3.9,33-12.9,47.3c-3.4,5.3-8,10.4-13.2,14c-14.2,9.7-30.7,2-32.4-15c-2.1-21,2.4-40.7,14.2-58.4
		c4.8-7.2,11-12.9,20-14.7c10.2-2.1,18.8,2.7,21.7,12.7C470.2,85.9,470.6,90.8,471.4,95.5z M415.8,133.5c0.6,4.1,0.9,8.3,2,12.2
		c2.3,8.1,8.9,12,17.3,10.8c7.8-1.1,13.5-5.8,17.6-12c11.8-17.6,15.8-37.3,13.3-58.1c-1.6-13.4-13.5-18.9-24.7-11.3
		c-5.4,3.7-10.2,9.2-13.7,14.8C419.6,103.2,416.8,118.1,415.8,133.5z"/>
</g>
</svg>
